<svg width="104" height="31" viewBox="0 0 104 31" fill="none" xmlns="http://www.w3.org/2000/svg">
<path d="M102.854 26.8766C102.854 27.2602 102.778 27.6399 102.631 27.9942C102.484 28.3486 102.269 28.6704 101.998 28.9415C101.726 29.2126 101.404 29.4275 101.049 29.574C100.695 29.7205 100.315 29.7957 99.9311 29.7953H4.28905C3.51387 29.7961 2.7701 29.4891 2.22132 28.9417C1.67254 28.3944 1.36368 27.6516 1.36267 26.8766V3.60119C1.36368 2.82588 1.67242 2.08266 2.22109 1.53472C2.76976 0.986783 3.51352 0.678912 4.28905 0.678711H99.9304C100.314 0.678711 100.694 0.754309 101.049 0.901186C101.404 1.04806 101.726 1.26334 101.997 1.53473C102.269 1.80612 102.484 2.1283 102.631 2.48286C102.778 2.83743 102.853 3.21744 102.853 3.60119L102.854 26.8766Z" fill="white"/>
<path d="M99.9281 30.4738H4.28855C3.33364 30.4736 2.4178 30.0947 1.74201 29.4202C1.06621 28.7457 0.685655 27.8308 0.683838 26.8761L0.683838 3.60147C0.685251 2.64634 1.06556 1.73076 1.74133 1.0556C2.41711 0.380432 3.33316 0.000806167 4.28855 0L99.9273 0C100.883 0.00120843 101.798 0.380963 102.474 1.05604C103.15 1.73112 103.53 2.64646 103.532 3.60147V26.8761C103.534 28.8605 101.914 30.4738 99.9281 30.4738Z" fill="black"/>
<path d="M102.851 26.8759C102.851 27.2594 102.775 27.6392 102.629 27.9935C102.482 28.3478 102.266 28.6697 101.995 28.9408C101.723 29.2118 101.401 29.4268 101.047 29.5732C100.692 29.7197 100.312 29.7949 99.9285 29.7945H4.28897C3.51381 29.7954 2.77006 29.4883 2.2213 28.941C1.67253 28.3937 1.36368 27.6508 1.36267 26.8759V3.60046C1.36368 2.82515 1.67241 2.08193 2.22106 1.53399C2.76972 0.98605 3.51346 0.67818 4.28897 0.677979H99.9278C100.312 0.677979 100.692 0.753576 101.046 0.900454C101.401 1.04733 101.723 1.26261 101.995 1.534C102.266 1.80539 102.481 2.12756 102.628 2.48213C102.775 2.8367 102.85 3.21671 102.85 3.60046L102.851 26.8759Z" fill="black"/>
<path d="M23.6491 15.0759C23.627 12.6198 25.6607 11.4249 25.7537 11.3692C24.6019 9.69041 22.8167 9.46104 22.1894 9.44275C20.69 9.285 19.2357 10.3397 18.4719 10.3397C17.6928 10.3397 16.5167 9.45799 15.2491 9.4839C13.6178 9.50905 12.0918 10.4532 11.2548 11.9194C9.52756 14.909 10.8158 19.3022 12.4706 21.7187C13.2984 22.9029 14.2657 24.2236 15.5319 24.1771C16.7705 24.1268 17.2332 23.3883 18.728 23.3883C20.2091 23.3883 20.6435 24.1771 21.9348 24.1474C23.2642 24.1268 24.1011 22.9585 24.9 21.7644C25.8566 20.4087 26.2408 19.0721 26.256 19.0035C26.2255 18.9928 23.675 18.0189 23.6491 15.0759ZM21.2099 7.8531C21.8761 7.02018 22.3319 5.887 22.2054 4.73706C21.2411 4.77974 20.0353 5.40386 19.3408 6.21849C18.7265 6.93635 18.1776 8.11296 18.3194 9.21946C19.4026 9.30024 20.5147 8.67307 21.2099 7.8531Z" fill="white"/>
<path d="M99.9279 0H48.7004L68.7653 30.4738H99.9279C100.883 30.473 101.799 30.0936 102.475 29.4187C103.15 28.7439 103.531 27.8287 103.533 26.8738V3.60147C103.531 2.6464 103.151 1.73094 102.475 1.05582C101.799 0.380698 100.883 0.00100737 99.9279 0Z" fill="url(#paint0_linear_94_316)"/>
<path d="M41.5902 24.0079H39.8591L38.9109 21.029H35.6149L34.7116 24.0079H33.0262L36.2925 13.8664H38.3094L41.5902 24.0079ZM38.625 19.7792L37.7675 17.1311C37.6768 16.8605 37.506 16.2235 37.256 15.2206H37.2255C37.1249 15.6519 36.9641 16.289 36.7438 17.1311L35.9007 19.7792H38.625ZM49.9735 20.2616C49.9735 21.5053 49.6358 22.4883 48.9597 23.21C48.3545 23.8524 47.6021 24.1732 46.7049 24.1732C45.7361 24.1732 45.0394 23.828 44.6164 23.1361V26.973H42.9912V19.0987C42.9912 18.3176 42.9706 17.5167 42.931 16.6952H44.3602L44.4509 17.8543H44.4814C45.0234 16.981 45.8459 16.5443 46.9496 16.5443C47.8125 16.5443 48.5328 16.8849 49.1091 17.567C49.6846 18.2505 49.9735 19.1482 49.9735 20.2616ZM48.3179 20.321C48.3179 19.6093 48.1578 19.0225 47.8361 18.5599C47.4847 18.0791 47.0129 17.8383 46.4214 17.8383C46.0204 17.8383 45.6561 17.9724 45.3306 18.2368C45.0043 18.5035 44.7909 18.8518 44.6911 19.2831C44.6465 19.4444 44.6211 19.6104 44.6156 19.7777V20.9977C44.6156 21.5289 44.7787 21.9777 45.105 22.3451C45.4312 22.7108 45.855 22.8945 46.3764 22.8945C46.9885 22.8945 47.4649 22.6575 47.8056 22.1873C48.1471 21.7156 48.3179 21.0938 48.3179 20.321ZM58.3865 20.2616C58.3865 21.5053 58.0488 22.4883 57.3727 23.21C56.7667 23.8524 56.0151 24.1732 55.1172 24.1732C54.1484 24.1732 53.4517 23.828 53.0286 23.1361V26.973H51.4035V19.0987C51.4035 18.3176 51.3829 17.5167 51.3433 16.6952H52.7725L52.8632 17.8543H52.8937C53.4349 16.981 54.2574 16.5443 55.3619 16.5443C56.224 16.5443 56.9443 16.8849 57.5221 17.567C58.0969 18.2505 58.3865 19.1482 58.3865 20.2616ZM56.7301 20.321C56.7301 19.6093 56.5693 19.0225 56.2476 18.5599C55.8962 18.0791 55.4259 17.8383 54.8344 17.8383C54.4335 17.8383 54.0691 17.9724 53.7421 18.2368C53.4158 18.5035 53.2032 18.8518 53.1033 19.2831C53.0538 19.4843 53.0271 19.6481 53.0271 19.7777V20.9977C53.0271 21.5289 53.191 21.9777 53.5157 22.3451C53.8419 22.7101 54.2658 22.8945 54.7887 22.8945C55.4015 22.8945 55.8779 22.6575 56.2179 22.1873C56.5594 21.7156 56.7301 21.0938 56.7301 20.321ZM67.7928 21.1631C67.7928 22.0265 67.4909 22.7284 66.891 23.2702C66.2309 23.8615 65.3093 24.158 64.1278 24.158C63.0363 24.158 62.1612 23.9477 61.5011 23.5262L61.8769 22.1721C62.5896 22.5942 63.3724 22.8046 64.2246 22.8046C64.8375 22.8046 65.3139 22.6659 65.6539 22.3908C65.9946 22.1149 66.1669 21.7461 66.1669 21.2858C66.1669 20.8735 66.0243 20.5283 65.7446 20.2471C65.4633 19.9667 64.9983 19.7053 64.3451 19.4652C62.569 18.803 61.6802 17.8345 61.6802 16.5603C61.6802 15.7281 61.9943 15.0469 62.6208 14.5142C63.2474 13.9823 64.0783 13.7163 65.1119 13.7163C66.035 13.7163 66.8041 13.8771 67.4147 14.1979L67.0069 15.5224C66.4321 15.2115 65.7834 15.056 65.0578 15.056C64.4846 15.056 64.0348 15.197 63.7132 15.4774C63.4426 15.7281 63.3054 16.0337 63.3054 16.3965C63.3054 16.7965 63.4616 17.1288 63.7726 17.3894C64.0425 17.6295 64.5349 17.8908 65.2468 18.1713C66.1204 18.5233 66.7622 18.9333 67.173 19.4043C67.5869 19.8752 67.7928 20.4628 67.7928 21.1631ZM73.1796 17.9145H71.3883V21.4649C71.3883 22.3679 71.7039 22.8183 72.3366 22.8183C72.627 22.8183 72.8679 22.7939 73.0584 22.7428L73.1034 23.9766C72.7832 24.0963 72.3617 24.1565 71.8396 24.1565C71.1978 24.1565 70.6962 23.9606 70.3341 23.5689C69.9736 23.1772 69.7922 22.5211 69.7922 21.5975V17.9114H68.725V16.6921H69.7922V15.3532L71.3883 14.8716V16.6921H73.1796V17.9145ZM81.2458 20.2913C81.2458 21.4153 80.9241 22.3382 80.2823 23.0599C79.6108 23.8029 78.7174 24.1732 77.6038 24.1732C76.529 24.1732 75.6745 23.8173 75.0372 23.1063C74.4 22.3938 74.0814 21.4961 74.0814 20.4132C74.0814 19.2801 74.4107 18.3519 75.067 17.6302C75.7248 16.9078 76.6105 16.5466 77.7242 16.5466C78.7974 16.5466 79.6596 16.9032 80.312 17.615C80.9356 18.3054 81.2458 19.197 81.2458 20.2913ZM79.5612 20.3287C79.5612 19.6588 79.4164 19.0842 79.126 18.6034C78.7852 18.0227 78.2974 17.7323 77.6655 17.7323C77.0145 17.7323 76.5153 18.0227 76.1753 18.6034C75.8841 19.0842 75.7393 19.6687 75.7393 20.3591C75.7393 21.0297 75.8841 21.6059 76.1753 22.0852C76.5267 22.6659 77.0168 22.9562 77.6518 22.9562C78.273 22.9562 78.7601 22.6598 79.1123 22.0707C79.4111 21.5784 79.5612 21 79.5612 20.3287ZM86.5305 18.124C86.3615 18.0935 86.1901 18.0785 86.0183 18.0791C85.4466 18.0791 85.0045 18.294 84.6935 18.7268C84.4237 19.1078 84.288 19.5895 84.288 20.1709V24.0079H82.6628V18.9981C82.6643 18.2305 82.6485 17.4629 82.6156 16.6959H84.0311L84.0906 18.0951H84.1355C84.3078 17.6142 84.5776 17.2263 84.9481 16.936C85.2872 16.6823 85.6992 16.5449 86.1227 16.5443C86.2729 16.5443 86.4086 16.555 86.529 16.574L86.5305 18.124ZM93.7986 20.0055C93.8028 20.2525 93.7829 20.4993 93.7392 20.7425H88.8638C88.8821 21.4649 89.1184 22.0181 89.5712 22.3992C89.982 22.739 90.5133 22.9097 91.1658 22.9097C91.8877 22.9097 92.5463 22.7954 93.1385 22.5645L93.3931 23.6916C92.701 23.9934 91.8839 24.1435 90.9409 24.1435C89.8067 24.1435 88.9164 23.8097 88.2685 23.1437C87.6221 22.4769 87.2981 21.5807 87.2981 20.4582C87.2981 19.3563 87.5992 18.438 88.2022 17.7057C88.8333 16.9238 89.6863 16.5329 90.7595 16.5329C91.8137 16.5329 92.6118 16.9238 93.1538 17.7057C93.5829 18.3252 93.7986 19.0934 93.7986 20.0055ZM92.249 19.5841C92.2604 19.1017 92.1537 18.6864 91.9334 18.3351C91.6521 17.8825 91.2192 17.6569 90.6391 17.6569C90.1078 17.6569 89.6748 17.8771 89.3456 18.3191C89.075 18.6704 88.9141 19.0926 88.8646 19.5826L92.249 19.5841Z" fill="white"/>
<path d="M35.1464 10.2805C34.6944 10.2805 34.3034 10.2584 33.9779 10.2211V5.31804C34.4331 5.24774 34.8932 5.21309 35.3538 5.2144C37.2175 5.2144 38.0758 6.13116 38.0758 7.62554C38.0758 9.34931 37.062 10.2805 35.1464 10.2805ZM35.4193 5.8431C35.1678 5.8431 34.9536 5.85834 34.776 5.89492V9.62213C34.872 9.63737 35.0565 9.64423 35.3157 9.64423C36.5368 9.64423 37.232 8.94923 37.232 7.64764C37.232 6.48704 36.6031 5.8431 35.4193 5.8431ZM40.7506 10.3179C39.7002 10.3179 39.0195 9.53373 39.0195 8.46914C39.0195 7.35959 39.7146 6.56857 40.81 6.56857C41.8451 6.56857 42.5411 7.31539 42.5411 8.41046C42.5411 9.53373 41.8238 10.3179 40.7506 10.3179ZM40.781 7.15231C40.204 7.15231 39.8343 7.69184 39.8343 8.44628C39.8343 9.18623 40.2116 9.72577 40.7734 9.72577C41.3352 9.72577 41.7125 9.14889 41.7125 8.43104C41.7125 7.69946 41.3428 7.15231 40.781 7.15231ZM48.5309 6.64249L47.4066 10.2363H46.674L46.2083 8.67566C46.0925 8.2939 45.9961 7.90654 45.9194 7.51505H45.9042C45.8455 7.90674 45.7342 8.2992 45.616 8.67566L45.1206 10.2363H44.3804L43.3224 6.64249H44.1434L44.5504 8.35102C44.6464 8.75796 44.7272 9.14203 44.7943 9.50477H44.8096C44.8683 9.20223 44.9643 8.82426 45.1053 8.35864L45.616 6.64326H46.267L46.7556 8.32206C46.8738 8.729 46.9698 9.12832 47.0445 9.50553H47.0658C47.1177 9.13594 47.1992 8.74348 47.3098 8.32206L47.7465 6.64326L48.5309 6.64249ZM52.6699 10.2363H51.8711V8.1727C51.8711 7.53715 51.6272 7.21861 51.1462 7.21861C50.6728 7.21861 50.3474 7.62554 50.3474 8.09878V10.2363H49.5485V7.66974C49.5485 7.35197 49.5409 7.01133 49.5188 6.64173H50.2216L50.2589 7.19651H50.281C50.496 6.81243 50.932 6.56857 51.4206 6.56857C52.1752 6.56857 52.6707 7.14545 52.6707 8.0843L52.6699 10.2363ZM54.8729 10.2363H54.0733V4.99341H54.8729V10.2363ZM57.7855 10.3179C56.7358 10.3179 56.0544 9.53373 56.0544 8.46914C56.0544 7.35959 56.7495 6.56857 57.8441 6.56857C58.8801 6.56857 59.5752 7.31539 59.5752 8.41046C59.576 9.53373 58.8579 10.3179 57.7855 10.3179ZM57.8152 7.15231C57.2381 7.15231 56.8685 7.69184 56.8685 8.44628C56.8685 9.18623 57.2465 9.72577 57.8068 9.72577C58.3693 9.72577 58.7459 9.14889 58.7459 8.43104C58.7467 7.69946 58.3777 7.15231 57.8152 7.15231ZM62.7249 10.2363L62.6669 9.82255H62.6456C62.4017 10.1556 62.0457 10.3179 61.5944 10.3179C60.9503 10.3179 60.493 9.86675 60.493 9.26015C60.493 8.37312 61.2621 7.91436 62.5938 7.91436V7.84806C62.5938 7.37483 62.343 7.13783 61.8475 7.13783C61.4931 7.13783 61.1821 7.22699 60.9084 7.40455L60.7461 6.87949C61.0784 6.67221 61.4931 6.56857 61.9802 6.56857C62.9192 6.56857 63.3934 7.06391 63.3934 8.05534V9.37903C63.3934 9.74177 63.4094 10.023 63.4452 10.2371L62.7249 10.2363ZM62.6151 8.44628C61.7278 8.44628 61.2827 8.66118 61.2827 9.17099C61.2827 9.54821 61.5121 9.73262 61.8307 9.73262C62.237 9.73262 62.6151 9.42247 62.6151 9.00105V8.44628ZM67.2725 10.2363L67.2351 9.65947H67.213C66.9836 10.0954 66.5979 10.3179 66.059 10.3179C65.1923 10.3179 64.5505 9.55583 64.5505 8.48362C64.5505 7.35959 65.2159 6.56781 66.1245 6.56781C66.6055 6.56781 66.9462 6.73013 67.1383 7.05629H67.1543V4.99341H67.9539V9.26777C67.9539 9.61527 67.9623 9.94066 67.9837 10.2363H67.2725ZM67.1543 8.12164C67.1543 7.61869 66.8212 7.18965 66.3128 7.18965C65.7205 7.18965 65.3585 7.7147 65.3585 8.4539C65.3585 9.17861 65.7343 9.67471 66.2968 9.67471C66.7991 9.67471 67.1543 9.23805 67.1543 8.72062V8.12164ZM73.0237 10.3179C71.9741 10.3179 71.2934 9.53373 71.2934 8.46914C71.2934 7.35959 71.9886 6.56857 73.0832 6.56857C74.1191 6.56857 74.8143 7.31539 74.8143 8.41046C74.815 9.53373 74.0977 10.3179 73.0237 10.3179ZM73.0534 7.15231C72.4772 7.15231 72.1075 7.69184 72.1075 8.44628C72.1075 9.18623 72.4848 9.72577 73.0458 9.72577C73.6084 9.72577 73.9849 9.14889 73.9849 8.43104C73.9864 7.69946 73.6168 7.15231 73.0534 7.15231ZM79.1103 10.2363H78.3107V8.1727C78.3107 7.53715 78.0668 7.21861 77.5858 7.21861C77.1125 7.21861 76.7877 7.62554 76.7877 8.09878V10.2363H75.9881V7.66974C75.9881 7.35197 75.9805 7.01133 75.9584 6.64173H76.6612L76.6986 7.19651H76.7207C76.9349 6.81243 77.3716 6.56781 77.8595 6.56781C78.6141 6.56781 79.1103 7.14469 79.1103 8.08354V10.2363ZM84.485 7.24147H83.6061V8.98657C83.6061 9.43085 83.7601 9.65261 84.0711 9.65261C84.2121 9.65261 84.3303 9.63737 84.4255 9.61527L84.4477 10.2219C84.2929 10.2813 84.0856 10.311 83.8279 10.311C83.1983 10.311 82.8218 9.96353 82.8218 9.05363V7.24147H82.2973V6.64249H82.8218V5.98408L83.6061 5.74708V6.64173H84.485V7.24147ZM88.714 10.2363H87.9159V8.18794C87.9159 7.54477 87.6728 7.21937 87.191 7.21937C86.7771 7.21937 86.3914 7.50057 86.3914 8.06982V10.2363H85.5933V4.99341H86.3914V7.15231H86.4074C86.659 6.76061 87.0233 6.56781 87.4883 6.56781C88.249 6.56781 88.714 7.15917 88.714 8.09878V10.2363ZM93.0467 8.63146H90.6494C90.6646 9.31197 91.1151 9.69605 91.7821 9.69605C92.1365 9.69605 92.4628 9.63661 92.7509 9.52611L92.8752 10.0809C92.5352 10.2287 92.135 10.3026 91.6693 10.3026C90.5449 10.3026 89.8795 9.59241 89.8795 8.49124C89.8795 7.38931 90.5609 6.56095 91.5793 6.56095C92.4978 6.56095 93.0741 7.24147 93.0741 8.26948C93.0793 8.3908 93.0701 8.5123 93.0467 8.63146ZM92.3141 8.0622C92.3141 7.50743 92.0344 7.11573 91.5237 7.11573C91.0648 7.11573 90.702 7.51505 90.6501 8.0622H92.3141Z" fill="white"/>
<defs>
<linearGradient id="paint0_linear_94_316" x1="76.1157" y1="30.5547" x2="76.1157" y2="-79.3485" gradientUnits="userSpaceOnUse">
<stop stop-color="#1A1A1A" stop-opacity="0.1"/>
<stop offset="0.123" stop-color="#212121" stop-opacity="0.151"/>
<stop offset="0.308" stop-color="#353535" stop-opacity="0.227"/>
<stop offset="0.532" stop-color="#575757" stop-opacity="0.318"/>
<stop offset="0.783" stop-color="#858585" stop-opacity="0.421"/>
<stop offset="1" stop-color="#B3B3B3" stop-opacity="0.51"/>
</linearGradient>
</defs>
</svg>
