<svg width="82" height="85" viewBox="0 0 82 85" fill="none" xmlns="http://www.w3.org/2000/svg">
<path d="M33.1992 0C34.1403 0.458142 34.7077 1.22343 35.1868 2.13457C37.894 7.2891 40.6462 12.4196 43.3655 17.569C43.625 18.0597 43.907 18.3223 44.4986 18.4218C50.3576 19.3981 56.2097 20.4156 62.0652 21.4212C62.2918 21.4606 62.5167 21.5052 62.7398 21.5567C64.9489 22.0578 65.6841 24.3279 64.1168 25.9528C61.2937 28.8836 58.4308 31.7748 55.5835 34.6815C54.139 36.1555 52.6704 37.6054 51.2571 39.1085C50.9613 39.4226 50.8696 39.9253 50.6845 40.3406C50.7831 40.3903 50.88 40.4384 50.9786 40.4881C51.1135 40.3268 51.2554 40.1707 51.3817 40.0042C53.1703 37.6346 56.1042 36.6171 58.9619 37.439C59.5033 37.5951 59.7645 37.4819 60.1087 37.0752C62.9855 33.6743 68.4259 33.9317 70.7439 37.7255C73.9285 42.9401 77.0976 48.1805 79.9432 53.5804C84.4564 62.1444 81.2907 72.6851 72.9304 77.6783C70.199 79.3101 67.4312 80.8836 64.6479 82.4262C58.4429 85.8614 52.1982 85.8648 46.0191 82.4004C39.9906 79.0201 34.0123 75.554 28.0201 72.1085C25.1987 70.4853 24.4358 67.316 26.176 64.5998C28.7276 60.6155 33.4224 59.0884 37.8439 60.8025C37.9961 60.8609 38.1501 60.9141 38.4493 61.0222C38.2746 60.6738 38.1795 60.4542 38.0601 60.2483C36.9115 58.2733 35.7611 56.3 34.6091 54.3268C33.8739 53.0673 32.6768 52.6812 31.4019 53.3024C26.1207 55.8796 20.836 58.4483 15.5634 61.0462C14.5013 61.5695 13.4876 61.7154 12.4774 61.0084C11.4827 60.3135 11.3011 59.3063 11.462 58.1944C12.1176 53.6833 12.7784 49.1722 13.434 44.6629C13.6433 43.225 13.8059 41.7785 14.0723 40.3526C14.183 39.7589 13.9858 39.4123 13.5966 39.0176C9.39133 34.7536 5.19299 30.4811 1.02232 26.1845C0.601968 25.7521 0.216212 25.179 0.0778244 24.6076C-0.273335 23.1456 0.603698 21.8621 2.12769 21.5807C5.37289 20.9819 8.62846 20.4431 11.8823 19.8854C14.6847 19.405 17.4853 18.9211 20.2911 18.4681C20.9104 18.3686 21.2788 18.1112 21.5798 17.5364C24.2421 12.4556 26.9545 7.40235 29.6219 2.32331C30.1201 1.37614 30.6702 0.518198 31.6458 0.00171589H33.1992V0ZM30.5508 67.5597C30.6875 67.6575 30.7757 67.7313 30.8743 67.7879C36.7973 71.1768 42.703 74.5931 48.6485 77.9425C53.1132 80.458 57.6316 80.4134 62.1033 77.9254C64.634 76.5166 67.1371 75.0581 69.6471 73.6151C76.6098 69.6136 78.7461 61.7274 74.7346 54.8158C72.0828 50.2481 69.4171 45.6855 66.7548 41.123C66.5974 40.8536 66.4469 40.5636 66.2324 40.344C65.7065 39.8069 65.0682 39.7125 64.4316 40.1106C63.7985 40.507 63.5979 41.1093 63.8573 41.8179C63.9542 42.0822 64.1151 42.3258 64.2587 42.5712C65.1167 44.0537 65.992 45.5277 66.8327 47.0205C67.3534 47.9437 67.3309 48.8771 66.7185 49.7642C66.1269 50.6222 65.2879 50.9688 64.2587 50.8607C63.3228 50.7629 62.688 50.2258 62.233 49.4416C61.0429 47.3929 59.8475 45.3458 58.6522 43.2987C58.2561 42.621 57.6558 42.2538 56.8705 42.331C56.1647 42.3996 55.5333 42.7823 55.4209 43.4823C55.3309 44.0486 55.4139 44.7487 55.6838 45.2497C56.7978 47.3071 58.0381 49.2975 59.1833 51.3394C60.1347 53.0347 59.1954 54.9325 57.3012 55.2448C56.265 55.4164 55.2496 54.8793 54.6061 53.788C53.4039 51.7461 52.2293 49.687 51.0149 47.652C50.4856 46.7631 49.5861 46.4731 48.7246 46.8335C47.9393 47.1612 47.4947 48.014 47.7127 48.8788C47.794 49.2014 47.9791 49.5051 48.1486 49.8003C49.2903 51.7787 50.4527 53.7468 51.5858 55.7304C52.1117 56.6501 52.0944 57.5938 51.4924 58.4775C50.9129 59.332 50.0756 59.7061 49.0429 59.598C48.0361 59.4916 47.4013 58.879 46.9169 58.0417C44.5401 53.9407 42.1512 49.8466 39.7675 45.749C38.1881 43.0345 36.6053 40.32 35.0294 37.6037C34.6212 36.9002 34.0399 36.485 33.2044 36.5553C32.4865 36.6171 31.8396 36.9997 31.7479 37.6878C31.6649 38.3072 31.7808 39.0691 32.0904 39.6096C36.2057 46.7631 40.3712 53.8875 44.5228 61.0204C45.6576 62.9697 46.8166 64.9069 47.9099 66.8785C48.7644 68.4176 48.0171 70.1953 46.3772 70.6552C45.5503 70.8868 44.8013 70.6655 44.0731 70.2451C41.5163 68.766 38.9648 67.2766 36.3787 65.8507C34.1749 64.6341 31.5853 65.4063 30.5456 67.5631L30.5508 67.5597ZM7.92788 25.8104C8.26001 26.1622 8.45202 26.3732 8.65095 26.5757C11.9429 29.9303 15.2296 33.2865 18.5301 36.6325C19.2082 37.3206 19.6632 38.0876 19.5213 39.0742C19.0508 42.3739 18.5561 45.6701 18.0752 48.968C17.8174 50.7354 17.5649 52.5028 17.2864 54.4383C21.8878 52.1922 26.3456 50.013 30.8138 47.8321C29.5337 45.6049 28.2467 43.5407 27.1344 41.3872C25.8387 38.8786 26.1034 36.3717 27.8004 34.141C29.4956 31.9121 31.8326 31.0113 34.6437 31.5054C36.889 31.9001 38.4874 33.1836 39.6049 35.1242C41.2136 37.9143 42.8449 40.6906 44.4432 43.4343C45.6784 42.9092 46.0935 42.065 45.6559 40.833C45.5521 40.543 45.5659 40.2136 45.5002 39.9081C45.2026 38.5131 45.5728 37.4098 46.6298 36.3648C49.9321 33.1029 53.1478 29.7552 56.393 26.4367C56.5574 26.2685 56.6958 26.0729 56.8514 25.8876C56.7338 25.8053 56.6906 25.7521 56.6421 25.7435C51.8332 24.9199 47.0276 24.0842 42.2135 23.2915C40.9887 23.089 40.1117 22.5725 39.5253 21.4366C37.7435 17.9894 35.8961 14.5765 34.0728 11.1516C33.5521 10.1752 33.0297 9.19888 32.4623 8.13675C32.2513 8.51939 32.099 8.78878 31.9537 9.06161C29.7568 13.1952 27.5495 17.3219 25.3751 21.4658C24.8389 22.4867 24.0604 23.0701 22.9205 23.2572C19.8067 23.7685 16.6947 24.3039 13.5845 24.8341C11.7543 25.1464 9.92758 25.4672 7.92788 25.8138V25.8104Z" fill="#F36523"/>
</svg>
