<svg width="86" height="83" viewBox="0 0 86 83" fill="none" xmlns="http://www.w3.org/2000/svg">
<path d="M40.5304 82.9999C38.5665 82.6595 36.5861 82.3925 34.6406 81.9645C30.3161 81.0126 26.3555 79.1986 22.7157 76.6976C22.1619 76.3165 21.7756 76.3144 21.1727 76.6079C11.3181 81.3938 -0.104008 74.213 0.000219796 63.3225C0.0717485 55.8625 5.92688 49.5398 13.3761 48.8774C20.8192 48.215 27.6696 53.3147 29.1001 60.5913C29.8236 64.2663 29.2269 67.7232 27.3344 70.9579C27.1995 71.1862 27.0851 71.4267 26.94 71.6998C30.4715 73.999 34.2747 75.4319 38.3764 76.1024C43.0585 76.8688 47.6363 76.3919 52.1631 75.0568C53.6652 74.6125 55.1509 75.3197 55.8621 76.663C56.5692 78.0021 56.2811 79.6755 55.106 80.6233C54.6972 80.9535 54.1843 81.2409 53.6754 81.351C51.2965 81.8707 48.9013 82.3232 46.5123 82.8002C46.2159 82.8593 45.9237 82.9327 45.6294 82.9999H40.5325H40.5304ZM9.41544 57.5278C7.24301 58.9444 6.08016 62.4644 6.8118 65.3975C7.68036 68.8707 10.5395 71.282 14.12 71.602C16.4661 71.8119 19.9199 70.43 20.6066 68.7586C13.276 68.4834 10.1205 65.316 9.41544 57.5278Z" fill="#F36523"/>
<path d="M86 64.0849C85.7854 65.208 85.6403 66.3494 85.344 67.4501C83.5476 74.1029 77.1652 78.5321 70.0818 78.0816C63.3847 77.6556 57.5316 72.1747 56.6753 65.528C55.5186 56.5433 62.2566 48.8835 71.3509 48.8428C71.6186 48.8428 71.8864 48.8428 72.4075 48.8428C72.2849 46.9574 72.2747 45.1372 72.0335 43.3456C71.0893 36.336 67.9462 30.4454 62.8043 25.5883C61.341 24.2063 61.2633 22.221 62.5345 20.8778C63.8241 19.5142 65.788 19.4755 67.2656 20.8513C73.4191 26.5748 77.2142 33.5844 78.3955 41.8903C78.7879 44.6501 78.6182 47.4894 78.7347 50.2899C78.747 50.5773 78.8737 50.9789 79.0862 51.1215C83.0857 53.7978 85.3583 57.4993 85.861 62.281C85.8753 62.4094 85.951 62.5338 85.998 62.6581V64.0808L86 64.0849ZM66.0496 57.2343C63.5379 59.5803 62.6469 62.175 63.2907 65.2161C64.0019 68.569 66.4992 70.9029 69.8406 71.4654C72.7631 71.9566 75.1849 71.0252 77.3941 68.7219C73.9954 68.8829 71.1915 68.0269 68.9353 65.7685C66.6689 63.4979 65.7574 60.7217 66.0476 57.2343H66.0496Z" fill="#F36523"/>
<path d="M29.6662 20.9125C27.8187 22.1945 25.9283 23.3278 24.2464 24.7118C19.2128 28.8494 15.9715 34.1428 14.4163 40.4635C13.9074 42.5343 12.5913 43.6533 10.8398 43.5168C8.72464 43.3517 7.34107 41.3746 8.0257 39.1447C8.84726 36.4705 9.67291 33.7555 10.9052 31.2587C14.5307 23.9005 20.1529 18.4645 27.5633 14.8955C28.0824 14.6448 28.3051 14.3798 28.3358 13.7704C28.6852 6.6752 34.4259 0.752019 41.5727 0.0651249C48.7276 -0.623807 55.5412 4.19464 57.217 11.1247C59.5877 20.9288 51.789 30.1111 41.728 29.2367C36.7414 28.8026 32.9218 26.3118 30.3141 22.0233C30.1403 21.738 29.9768 21.4465 29.6621 20.9104L29.6662 20.9125ZM48.9258 20.034C45.7459 20.0686 42.9481 19.186 40.6878 16.9317C38.4315 14.6835 37.565 11.8911 37.7081 8.48314C35.3456 10.8088 34.3912 13.3118 35.0247 16.2917C35.7032 19.4755 37.6549 21.5912 40.8022 22.4758C43.9658 23.3645 46.6573 22.4228 48.9258 20.034Z" fill="#F36523"/>
</svg>
