<svg width="86" height="87" viewBox="0 0 86 87" fill="none" xmlns="http://www.w3.org/2000/svg">
<path d="M37.4656 0C39.3152 0.975539 39.9619 2.39033 39.2435 3.88853C38.8647 4.6785 38.2914 5.09561 36.9759 5.52975V9.13397C40.6632 10.2627 44.0229 12.0282 47.1318 14.5684C47.8553 13.8006 48.5327 13.0429 49.2511 12.3262C50.4677 11.114 52.1655 11.0493 53.2729 12.1423C54.4024 13.2557 54.3683 14.9225 53.1568 16.1551C52.4248 16.8991 51.6468 17.6006 50.8874 18.3241C54.3444 22.5719 56.404 27.2844 57.2213 32.6286C58.3133 32.6286 59.3832 32.6235 60.4513 32.6286C62.6661 32.6405 64.5994 33.9583 64.9867 36.112C65.3177 37.9575 66.1095 39.0403 67.9472 39.5527C68.7014 39.7621 69.2133 39.8285 69.8617 39.3859C71.109 38.5346 72.4041 37.7889 74.0319 38.0188C75.1137 38.172 76.0351 38.6044 76.8081 39.3586C77.6186 40.152 78.4274 40.9471 79.2157 41.7609C80.8282 43.4259 81.1984 45.6613 79.8811 47.5784C78.8795 49.0391 78.6697 50.2802 79.5621 51.8568C79.9716 52.5803 80.2872 53.1064 81.1489 53.2052C81.6216 53.2596 82.0857 53.4197 82.5481 53.5508C84.6196 54.1347 85.9812 55.9173 85.9966 58.0658C86.0034 59.2269 86.0034 60.3881 85.9966 61.5492C85.9829 63.6994 84.6571 65.6335 82.5447 66.0217C80.6797 66.3639 79.5245 67.1402 79.0434 69.0249C78.871 69.6974 78.7806 70.1588 79.1543 70.7887C79.7071 71.7251 80.2497 72.7176 80.5227 73.7579C80.9135 75.2493 80.3862 76.613 79.3334 77.7298C78.4786 78.6373 77.5947 79.5192 76.6852 80.3721C75.1888 81.775 73.0695 82.0372 71.2489 81.0633C70.4503 80.6377 69.6996 79.8546 68.8874 79.8001C68.0786 79.7456 67.2374 80.4453 66.3825 80.7314C65.8279 80.9169 65.5515 81.2132 65.4611 81.7869C65.3689 82.3692 65.1932 82.9412 65.0345 83.5116C64.4441 85.6295 62.6678 86.9779 60.4548 86.9898C59.291 86.9966 58.1273 86.9983 56.9636 86.9898C54.8649 86.9728 52.9009 85.6431 52.5392 83.5848C52.203 81.6728 51.372 80.539 49.478 80.0316C48.8228 79.8563 48.3536 79.7388 47.7905 80.1576C47.34 80.4947 46.8332 80.762 46.335 81.0327C44.4512 82.0559 42.3132 81.7869 40.757 80.3125C39.9124 79.5141 39.0968 78.6849 38.2863 77.8524C36.696 76.218 36.2933 73.9707 37.5867 72.1115C38.6412 70.5946 38.8323 69.3007 37.9024 67.6816C37.5185 67.0142 37.1908 66.6227 36.4435 66.403C35.3207 66.0727 34.256 65.5467 33.1554 65.1364C32.908 65.0444 32.6094 65.0308 32.3415 65.0597C25.8507 65.7731 19.7267 64.6188 14.1317 61.2308C6.2963 56.491 1.7012 49.5345 0.3242 40.4806C0.211583 39.7332 0.107498 38.9824 0 38.2316C0 37.1556 0 36.0796 0 35.0036C0.0528958 34.7585 0.134799 34.515 0.155275 34.2664C0.626218 28.5034 2.68574 23.3687 6.25023 18.8213C6.36456 18.6748 6.45328 18.5063 6.60515 18.2645C5.86631 17.558 5.1343 16.8906 4.43983 16.1875C3.20958 14.948 3.14303 13.3153 4.24872 12.1815C5.35442 11.0476 7.08462 11.1004 8.32511 12.3415C9.03835 13.0549 9.7004 13.8193 10.3966 14.5718C13.5481 12.0044 16.9045 10.2474 20.5816 9.12375V5.51784C19.2319 5.09902 18.5954 4.60699 18.2405 3.72509C17.6501 2.25242 18.3002 0.943191 20.0936 0H37.4639L37.4656 0ZM31.5088 59.6509C31.5088 59.0618 31.5037 58.5306 31.5088 57.9994C31.5293 56.0296 32.7442 54.3271 34.6211 53.6751C35.1535 53.4895 35.7012 53.3056 36.2558 53.2341C37.1704 53.1166 37.5458 52.6042 37.9723 51.7955C38.7948 50.236 38.6207 49.0272 37.6362 47.5903C36.2916 45.629 36.6721 43.4106 38.3358 41.7132C39.0507 40.9845 39.7759 40.2678 40.5011 39.5493C42.3286 37.743 44.5178 37.3956 46.6711 38.8172C47.9645 39.6702 49.1043 40.0992 50.4677 39.1152C50.6895 38.9551 50.983 38.8717 51.256 38.8104C51.7542 38.6998 51.9829 38.4257 51.9488 37.9149C51.8174 36.0013 51.9061 34.0417 51.529 32.1792C49.0634 20.0249 37.7761 12.1542 25.4582 13.8993C14.9115 15.3941 6.51301 24.2131 5.83048 34.8266C5.24692 43.8958 8.82165 51.1026 16.4369 56.1403C20.9587 59.1316 26.0128 60.2161 31.5054 59.6492L31.5088 59.6509ZM36.9844 60.938C38.0798 61.2104 39.0951 61.4657 40.1104 61.7126C41.3184 62.0071 42.0231 62.7477 42.4309 63.9395C42.9497 65.4547 43.5708 66.9461 44.2823 68.383C44.8556 69.5425 44.8812 70.5776 44.1919 71.6638C43.6339 72.544 43.1169 73.4497 42.5828 74.3401C43.1288 74.8849 43.6458 75.4025 44.1919 75.9456C45.086 75.4127 45.9954 74.8969 46.8759 74.3384C47.9645 73.6472 49.002 73.6744 50.1623 74.2516C51.5734 74.953 53.0374 75.5813 54.5338 76.0733C55.7999 76.4887 56.5695 77.2157 56.8647 78.496C57.0984 79.5072 57.3663 80.51 57.6206 81.5196H59.89C60.1561 80.4453 60.4104 79.4051 60.6697 78.3666C60.9632 77.1969 61.6969 76.5091 62.8521 76.1073C64.3946 75.5693 65.9133 74.9428 67.3841 74.2312C68.483 73.7 69.4794 73.6421 70.522 74.2771C71.4571 74.8475 72.4024 75.4008 73.2538 75.9081C73.8647 75.3531 74.4039 74.8611 74.9414 74.3725C74.3851 73.4429 73.8852 72.5542 73.3323 71.6995C72.614 70.5878 72.6413 69.5322 73.2419 68.3473C73.9415 66.9683 74.5609 65.533 75.0352 64.0638C75.4652 62.7273 76.2382 61.9527 77.5998 61.6717C78.5861 61.4691 79.5535 61.1814 80.4954 60.9397V58.6702C79.4256 58.408 78.4103 58.1578 77.3933 57.9092C76.187 57.6147 75.4806 56.8758 75.0728 55.6823C74.5557 54.1671 73.9346 52.6757 73.2231 51.2405C72.6481 50.0828 72.6174 49.0493 73.3101 47.9614C73.8715 47.0829 74.3868 46.1755 74.9192 45.2851C74.3749 44.742 73.8561 44.2278 73.3067 43.6796C72.3972 44.2227 71.4707 44.7641 70.5578 45.3259C69.4897 45.9848 68.4693 45.9286 67.3431 45.3719C65.9286 44.6739 64.468 44.0405 62.9716 43.5502C61.6696 43.1229 60.9052 42.3687 60.6203 41.0475C60.4087 40.0601 60.1271 39.0896 59.8746 38.1022H57.6206C57.351 39.1748 57.0916 40.2116 56.8305 41.2484C56.537 42.4181 55.8067 43.1093 54.6533 43.5145C53.1125 44.0542 51.5904 44.6773 50.1213 45.3889C48.9883 45.9388 47.9713 45.9695 46.9083 45.3072C46.0023 44.742 45.0774 44.2091 44.2362 43.7069C43.6322 44.2619 43.093 44.7573 42.5572 45.251C43.1118 46.1772 43.6117 47.0659 44.1646 47.9223C44.8829 49.034 44.8556 50.093 44.2584 51.2762C43.5622 52.657 42.9428 54.0922 42.4651 55.5597C42.0436 56.8553 41.3082 57.6436 39.9841 57.9381C38.9739 58.1629 37.9758 58.4455 36.981 58.7009V60.9397L36.9844 60.938ZM31.4457 7.98648V5.48379H26.0964V7.98648H31.4457Z" fill="#F36523"/>
<path d="M31.5019 32.6473C31.5019 34.4009 31.4849 36.1562 31.5088 37.9097C31.5207 38.7542 31.2494 39.4556 30.6573 40.0464C28.8725 41.8272 27.1014 43.6217 25.2978 45.3838C24.1409 46.5142 22.5062 46.5108 21.4142 45.4331C20.3205 44.3538 20.3017 42.7176 21.4244 41.5599C22.7844 40.1571 24.204 38.8104 25.552 37.3973C25.8267 37.1096 26.0315 36.6295 26.0366 36.2362C26.0759 33.2942 26.0554 30.3506 26.0588 27.4087C26.0605 25.6721 27.1662 24.4803 28.7667 24.4752C30.3672 24.4701 31.4951 25.667 31.5002 27.3882C31.5054 29.1418 31.5002 30.8971 31.5002 32.6507L31.5019 32.6473Z" fill="#F36523"/>
<path d="M58.7722 48.9404C64.8143 48.9404 69.6449 53.7875 69.6466 59.8552C69.6466 65.8259 64.7648 70.6866 58.7705 70.6832C52.7046 70.6798 47.8586 65.8498 47.8569 59.8076C47.8569 53.7722 52.7097 48.9404 58.7739 48.9404H58.7722ZM58.7296 54.3748C55.7913 54.38 53.3137 56.8503 53.3001 59.7888C53.2864 62.7597 55.7879 65.259 58.7671 65.2505C61.7071 65.2437 64.1915 62.7682 64.1983 59.8382C64.2051 56.8622 61.7105 54.3714 58.7296 54.3748Z" fill="#F36523"/>
</svg>
