<svg width="83" height="84" viewBox="0 0 83 84" fill="none" xmlns="http://www.w3.org/2000/svg">
<path d="M32.004 84C30.7843 83.2793 29.807 82.3926 29.9581 80.8057C29.9954 80.4137 30.0886 80.0067 30.249 79.6483C32.2856 75.0539 35.7901 72.3749 40.8201 72.1154C46.1746 71.8391 50.0931 74.3016 52.4934 79.0882C53.6478 81.3882 53.0958 82.8444 50.8074 84H49.3172C48.2094 83.5239 47.551 82.6894 47.04 81.588C45.9639 79.2749 44.041 78.054 41.4971 78.0521C38.9494 78.0521 37.0303 79.2805 35.9523 81.588C35.4394 82.6875 34.7867 83.5239 33.6807 84H32.0059H32.004Z" fill="#F36523"/>
<path d="M44.4739 45.2437C44.4739 46.95 44.4795 48.5555 44.4739 50.161C44.4646 51.9868 43.2374 53.2805 41.5178 53.2899C39.7982 53.2992 38.5375 51.9999 38.5263 50.1983C38.517 48.647 38.5188 47.0975 38.5132 45.5461C38.5132 45.4882 38.4852 45.4303 38.4368 45.2437C36.7806 45.2437 35.089 45.2567 33.3974 45.2399C32.1702 45.2287 31.1127 44.4764 30.6707 43.3488C30.2324 42.2305 30.46 40.8472 31.4167 40.1284C31.9949 39.6934 32.7857 39.3779 33.5037 39.3257C35.1319 39.2099 36.775 39.2883 38.5244 39.2883C38.5244 37.5577 38.5132 35.8925 38.5281 34.2291C38.5412 32.6815 39.6173 31.4344 41.059 31.2682C42.6294 31.0871 44.0393 31.9664 44.3769 33.4562C44.5298 34.1376 44.4627 34.8732 44.472 35.5844C44.4888 36.7326 44.4832 37.8788 44.4925 39.027C44.4925 39.0811 44.5336 39.1371 44.5951 39.2883C46.158 39.2883 47.7601 39.2827 49.3622 39.2883C51.1918 39.2958 52.4954 40.513 52.516 42.2193C52.5365 43.9779 51.2291 45.2324 49.3584 45.2399C47.7788 45.2455 46.2009 45.2399 44.4739 45.2399V45.2437Z" fill="#F36523"/>
<path d="M41.514 13.5778C46.4638 13.5796 50.9213 16.5909 52.7565 21.1741C53.4521 22.9121 52.8087 24.6483 51.2253 25.3017C49.6418 25.9551 48.0118 25.2569 47.2732 23.5525C46.1766 21.021 44.2575 19.5798 41.527 19.5704C38.7556 19.5611 36.8103 21.0079 35.71 23.5823C34.9919 25.2607 33.3003 25.9626 31.7393 25.2905C30.1913 24.6241 29.5479 22.9121 30.21 21.2282C32.019 16.6301 36.5325 13.5759 41.5158 13.5778H41.514Z" fill="#F36523"/>
<path d="M11.552 43.403C16.4813 43.4067 21.0488 46.5244 22.8374 51.1075C23.4995 52.8064 22.8505 54.4847 21.2726 55.1475C19.6911 55.8121 18.0424 55.1101 17.3169 53.4131C16.2314 50.8742 14.316 49.4498 11.5781 49.4311C8.83652 49.4124 6.90247 50.8219 5.78717 53.3422C5.00759 55.1027 3.39432 55.8158 1.78106 55.1381C0.199505 54.4735 -0.415959 52.7653 0.294622 51.0049C2.12982 46.4516 6.65069 43.3992 11.5539 43.403H11.552Z" fill="#F36523"/>
<path d="M71.4479 43.403C76.3828 43.4142 80.8701 46.4441 82.7053 51.0012C83.4177 52.7728 82.8172 54.4493 81.2226 55.1382C79.6168 55.8308 77.9849 55.1101 77.2183 53.3553C76.1142 50.8294 74.1802 49.4218 71.4386 49.4311C68.7399 49.4405 66.8263 50.8313 65.7241 53.3161C64.924 55.1214 63.2641 55.8457 61.6471 55.1176C60.0898 54.4175 59.5172 52.7168 60.2427 50.9433C62.091 46.4311 66.6081 43.3918 71.4479 43.403Z" fill="#F36523"/>
<path d="M30.3275 11.1322C30.3275 12.8796 29.0331 14.0482 27.1271 14.1341C22.0094 14.3619 18.1786 16.7011 15.7428 21.2357C15.3792 21.9115 15.1386 22.6564 14.8607 23.377C14.2172 25.0497 12.6637 25.8768 11.0952 25.369C9.46884 24.8425 8.58854 23.2053 9.17603 21.5008C11.7088 14.1603 16.7798 9.72642 24.4526 8.37107C25.4205 8.19932 26.4239 8.16385 27.4106 8.16572C29.0835 8.16945 30.3275 9.47253 30.3256 11.1303L30.3275 11.1322Z" fill="#F36523"/>
<path d="M26.5694 76.3738C18.7045 76.1853 11.4961 70.6929 9.18717 63.1172C8.64071 61.3268 9.42403 59.6989 11.0895 59.1594C12.6879 58.6423 14.2694 59.488 14.8774 61.2354C16.5392 66.0071 19.7899 69.009 24.7286 70.1235C25.5082 70.299 26.3195 70.3644 27.1214 70.3942C29.0611 70.4652 30.3573 71.6917 30.3237 73.4914C30.292 75.2089 28.9417 76.3925 27.0338 76.3738C26.879 76.3738 26.7242 76.3738 26.5694 76.3738Z" fill="#F36523"/>
<path d="M56.4736 8.16012C64.3142 8.34868 71.586 13.9176 73.8241 21.4541C74.3407 23.1922 73.563 24.807 71.9478 25.354C70.3476 25.8954 68.7381 25.0777 68.1357 23.3285C66.6175 18.9189 63.7062 15.945 59.2059 14.6419C58.1782 14.3451 57.0834 14.2013 56.011 14.1472C53.9203 14.0408 52.6204 12.8684 52.6745 10.9866C52.723 9.24104 54.077 8.12465 56.1024 8.16012C56.2255 8.16199 56.3505 8.16012 56.4736 8.16012Z" fill="#F36523"/>
<path d="M56.1415 76.3981C55.8226 76.3608 55.2164 76.3813 54.6718 76.2058C53.2339 75.741 52.4375 74.3184 52.6949 72.8305C52.9318 71.4621 54.1776 70.4428 55.6939 70.411C58.9409 70.3438 61.8187 69.3077 64.2749 67.1627C66.1176 65.5553 67.3597 63.5484 68.1169 61.2335C68.531 59.9659 69.3852 59.1687 70.7243 59.053C73.0015 58.8551 74.5234 60.8732 73.796 63.1265C72.427 67.3736 69.8981 70.7657 66.181 73.2431C63.2268 75.2126 59.9574 76.2264 56.1452 76.3981H56.1415Z" fill="#F36523"/>
<path d="M17.4829 35.9746C17.4736 39.2958 14.842 41.8964 11.4961 41.8889C8.19124 41.8814 5.56526 39.2249 5.57645 35.8962C5.58578 32.5956 8.24906 29.967 11.5744 29.9745C14.883 29.982 17.4922 32.6311 17.4829 35.9746Z" fill="#F36523"/>
<path d="M77.4514 36.1054C77.4365 39.4172 74.7658 42.0757 71.4721 42.0589C68.2083 42.0421 65.517 39.3164 65.5301 36.0401C65.5431 32.745 68.2213 30.1053 71.5374 30.1183C74.8628 30.1314 77.4664 32.7674 77.4514 36.1073V36.1054Z" fill="#F36523"/>
<path d="M47.4522 6.05989C47.4372 9.35492 44.7348 11.9966 41.4281 11.9517C38.1064 11.9069 35.529 9.26345 35.5457 5.91988C35.5625 2.64538 38.2967 -0.0429191 41.568 1.90418e-05C44.8542 0.0429571 47.4671 2.73499 47.4503 6.05989H47.4522Z" fill="#F36523"/>
<path d="M47.4524 64.6218C47.4374 67.8982 44.7052 70.594 41.4395 70.5548C38.157 70.5137 35.5347 67.8198 35.5459 64.5024C35.5571 61.2055 38.2577 58.5545 41.5588 58.5974C44.8805 58.6404 47.4673 61.2839 47.4524 64.6218Z" fill="#F36523"/>
</svg>
