<svg width="42" height="33" viewBox="0 0 42 33" fill="none" xmlns="http://www.w3.org/2000/svg">
<path d="M3.69385 29.4156C1.29052 26.863 0.000183105 24 0.000183105 19.359C0.000183105 11.1923 5.73318 3.87262 14.0702 0.253622L16.1539 3.46896C8.37218 7.67829 6.85085 13.1406 6.24419 16.5846C7.49719 15.936 9.13752 15.7096 10.7452 15.859C14.9545 16.2486 18.2725 19.7043 18.2725 24C18.2725 26.1659 17.4121 28.2431 15.8806 29.7747C14.349 31.3062 12.2718 32.1666 10.1058 32.1666C7.60218 32.1666 5.20818 31.0233 3.69385 29.4156ZM27.0272 29.4156C24.6239 26.863 23.3335 24 23.3335 19.359C23.3335 11.1923 29.0665 3.87262 37.4035 0.253622L39.4872 3.46896C31.7055 7.67829 30.1842 13.1406 29.5775 16.5846C30.8305 15.936 32.4708 15.7096 34.0785 15.859C38.2878 16.2486 41.6035 19.7043 41.6035 24C41.6035 26.1659 40.7431 28.2431 39.2116 29.7747C37.68 31.3062 35.6028 32.1666 33.4368 32.1666C30.9332 32.1666 28.5392 31.0233 27.0248 29.4156H27.0272Z" fill="#CC010C"/>
</svg>
