<svg width="104" height="30" viewBox="0 0 104 30" fill="none" xmlns="http://www.w3.org/2000/svg">
<path d="M100.177 29.638H4.6004C2.45949 29.638 0.777344 28.0079 0.777344 25.9333V3.70475C0.777344 1.63009 2.45949 0 4.6004 0H100.177C102.318 0 104 1.63009 104 3.70475V25.9333C104 28.0079 102.318 29.638 100.177 29.638Z" fill="black"/>
<path d="M100.177 0.592761C101.935 0.592761 103.388 2.00057 103.388 3.70475V25.9333C103.388 27.6375 101.935 29.0453 100.177 29.0453H4.6004C2.8418 29.0453 1.38903 27.6375 1.38903 25.9333V3.70475C1.38903 2.00057 2.8418 0.592761 4.6004 0.592761H100.177ZM100.177 0H4.6004C2.45949 0 0.777344 1.70419 0.777344 3.70475V25.9333C0.777344 28.0079 2.45949 29.638 4.6004 29.638H100.177C102.318 29.638 104 28.0079 104 25.9333V3.70475C104 1.70419 102.318 0 100.177 0Z" fill="black"/>
<path d="M37.0198 7.55866C37.0198 8.15142 36.8669 8.67009 36.4846 9.04056C36.0258 9.48513 35.4906 9.70742 34.8024 9.70742C34.1143 9.70742 33.579 9.48513 33.1203 9.04056C32.6615 8.59599 32.4321 8.07733 32.4321 7.41047C32.4321 6.74362 32.6615 6.22495 33.1203 5.78038C33.579 5.33581 34.1143 5.11353 34.8024 5.11353C35.1083 5.11353 35.4141 5.18762 35.72 5.33581C36.0258 5.484 36.2552 5.63219 36.4081 5.85448L36.0258 6.22495C35.72 5.85448 35.3377 5.70629 34.8024 5.70629C34.3437 5.70629 33.8849 5.85448 33.579 6.22495C33.1967 6.52133 33.0438 6.9659 33.0438 7.48457C33.0438 8.00323 33.1967 8.4478 33.579 8.74418C33.9614 9.04056 34.3437 9.26285 34.8024 9.26285C35.3377 9.26285 35.72 9.11466 36.1023 8.74418C36.3316 8.5219 36.4846 8.22552 36.4846 7.85504H34.8024V7.26228H37.0198V7.55866ZM40.537 5.70629H38.4726V7.11409H40.3841V7.63276H38.4726V9.04056H40.537V9.63332H37.8609V5.18762H40.537V5.70629ZM43.0602 9.63332H42.4485V5.70629H41.1487V5.18762H44.3601V5.70629H43.0602V9.63332ZM46.5774 9.63332V5.18762H47.1891V9.63332H46.5774ZM49.7888 9.63332H49.1771V5.70629H47.8773V5.18762H51.0122V5.70629H49.7124V9.63332H49.7888ZM57.0526 9.04056C56.5939 9.48513 56.0586 9.70742 55.3705 9.70742C54.6823 9.70742 54.1471 9.48513 53.6883 9.04056C53.2296 8.59599 53.0002 8.07733 53.0002 7.41047C53.0002 6.74362 53.2296 6.22495 53.6883 5.78038C54.1471 5.33581 54.6823 5.11353 55.3705 5.11353C56.0586 5.11353 56.5939 5.33581 57.0526 5.78038C57.5114 6.22495 57.7408 6.74362 57.7408 7.41047C57.7408 8.07733 57.5114 8.59599 57.0526 9.04056ZM54.1471 8.67009C54.453 8.96647 54.9117 9.18875 55.3705 9.18875C55.8293 9.18875 56.288 9.04056 56.5939 8.67009C56.8997 8.37371 57.1291 7.92914 57.1291 7.41047C57.1291 6.89181 56.9762 6.44724 56.5939 6.15086C56.288 5.85448 55.8293 5.63219 55.3705 5.63219C54.9117 5.63219 54.453 5.78038 54.1471 6.15086C53.8413 6.44724 53.6119 6.89181 53.6119 7.41047C53.6119 7.92914 53.7648 8.37371 54.1471 8.67009ZM58.5819 9.63332V5.18762H59.27L61.4874 8.67009V5.18762H62.0991V9.63332H61.4874L59.1171 6.00267V9.63332H58.5819Z" fill="white" stroke="white" stroke-width="0.853025" stroke-miterlimit="10"/>
<path d="M52.847 16.1534C51.012 16.1534 49.5592 17.4871 49.5592 19.3395C49.5592 21.1177 51.012 22.5255 52.847 22.5255C54.6821 22.5255 56.1349 21.1918 56.1349 19.3395C56.1349 17.413 54.6821 16.1534 52.847 16.1534ZM52.847 21.1918C51.853 21.1918 51.012 20.3768 51.012 19.2654C51.012 18.1539 51.853 17.3389 52.847 17.3389C53.841 17.3389 54.6821 18.0798 54.6821 19.2654C54.6821 20.3768 53.841 21.1918 52.847 21.1918ZM45.7361 16.1534C43.9011 16.1534 42.4483 17.4871 42.4483 19.3395C42.4483 21.1177 43.9011 22.5255 45.7361 22.5255C47.5712 22.5255 49.024 21.1918 49.024 19.3395C49.024 17.413 47.5712 16.1534 45.7361 16.1534ZM45.7361 21.1918C44.7422 21.1918 43.9011 20.3768 43.9011 19.2654C43.9011 18.1539 44.7422 17.3389 45.7361 17.3389C46.7301 17.3389 47.5712 18.0798 47.5712 19.2654C47.5712 20.3768 46.7301 21.1918 45.7361 21.1918ZM37.249 17.1166V18.4503H40.5368C40.4603 19.1913 40.1545 19.784 39.7722 20.1545C39.3134 20.5991 38.5488 21.1177 37.249 21.1177C35.1845 21.1177 33.6553 19.5617 33.6553 17.5612C33.6553 15.5606 35.261 14.0046 37.249 14.0046C38.3194 14.0046 39.1605 14.4492 39.7722 14.9678L40.7662 14.0046C39.9251 13.2637 38.8546 12.6709 37.3254 12.6709C34.5728 12.6709 32.2025 14.8938 32.2025 17.5612C32.2025 20.2286 34.5728 22.4514 37.3254 22.4514C38.8546 22.4514 39.9251 22.0069 40.8426 21.0436C41.7602 20.1545 42.066 18.8949 42.066 17.9316C42.066 17.6353 42.066 17.3389 41.9895 17.1166H37.249ZM71.9623 18.1539C71.6565 17.413 70.8919 16.1534 69.2097 16.1534C67.5276 16.1534 66.1513 17.413 66.1513 19.3395C66.1513 21.1177 67.5276 22.5255 69.3627 22.5255C70.8154 22.5255 71.7329 21.6364 72.0388 21.1177L70.9683 20.3768C70.586 20.8955 70.1273 21.2659 69.3627 21.2659C68.598 21.2659 68.1393 20.9695 67.757 20.3027L72.1153 18.5244L71.9623 18.1539ZM67.5276 19.1913C67.5276 18.0057 68.5216 17.3389 69.2097 17.3389C69.745 17.3389 70.2802 17.6353 70.4331 18.0057L67.5276 19.1913ZM63.9339 22.2292H65.3867V12.9673H63.9339V22.2292ZM61.6401 16.8202C61.2578 16.4497 60.6461 16.0793 59.8815 16.0793C58.2758 16.0793 56.7466 17.4871 56.7466 19.2654C56.7466 21.0436 58.1993 22.3774 59.8815 22.3774C60.6461 22.3774 61.2578 22.0069 61.5636 21.6364H61.6401V22.081C61.6401 23.2665 60.9519 23.9333 59.8815 23.9333C59.0404 23.9333 58.4287 23.3406 58.2758 22.8219L57.0524 23.3406C57.4347 24.1556 58.3522 25.193 59.9579 25.193C61.6401 25.193 63.0164 24.2297 63.0164 21.9328V16.3016H61.6401V16.8202ZM59.9579 21.1918C58.9639 21.1918 58.1229 20.3768 58.1229 19.2654C58.1229 18.1539 58.9639 17.3389 59.9579 17.3389C60.9519 17.3389 61.7165 18.1539 61.7165 19.2654C61.7165 20.3768 60.9519 21.1918 59.9579 21.1918ZM78.6145 12.9673H75.1737V22.2292H76.6265V18.7467H78.6145C80.2201 18.7467 81.7494 17.6353 81.7494 15.857C81.7494 14.0787 80.2201 12.9673 78.6145 12.9673ZM78.6909 17.413H76.6265V14.2269H78.6909C79.7614 14.2269 80.3731 15.116 80.3731 15.7829C80.2966 16.5979 79.6849 17.413 78.6909 17.413ZM87.484 16.0793C86.4135 16.0793 85.343 16.5238 84.9607 17.4871L86.2606 18.0057C86.5664 17.4871 87.0252 17.3389 87.5604 17.3389C88.325 17.3389 89.0132 17.7835 89.0896 18.5244V18.5985C88.8603 18.4503 88.2486 18.228 87.6369 18.228C86.2606 18.228 84.8843 18.969 84.8843 20.3027C84.8843 21.5623 86.0312 22.3774 87.2546 22.3774C88.2486 22.3774 88.7073 21.9328 89.0896 21.4882H89.1661V22.2292H90.5424V18.6726C90.3895 17.0425 89.0896 16.0793 87.484 16.0793ZM87.331 21.1918C86.8723 21.1918 86.1841 20.9695 86.1841 20.3768C86.1841 19.6358 87.0252 19.4135 87.7133 19.4135C88.325 19.4135 88.6309 19.5617 89.0132 19.7099C88.8603 20.5991 88.0956 21.1918 87.331 21.1918ZM95.3595 16.3016L93.7538 20.3027H93.6773L91.9952 16.3016H90.4659L92.9892 21.9328L91.5364 25.0448H92.9892L96.8887 16.3016H95.3595ZM82.514 22.2292H83.9667V12.9673H82.514V22.2292Z" fill="white"/>
<path d="M8.72931 5.55859C8.49992 5.78088 8.42346 6.15135 8.42346 6.59592V22.9709C8.42346 23.4155 8.57638 23.786 8.80577 24.0083L8.88223 24.0824L18.3634 14.8946V14.7464L8.72931 5.55859Z" fill="white"/>
<path d="M21.4224 18.0049L18.2875 14.967V14.7447L21.4224 11.7068L21.4988 11.7809L25.2454 13.8555C26.3159 14.4483 26.3159 15.4115 25.2454 16.0043L21.4224 18.0049Z" fill="white"/>
<path d="M21.4994 17.933L18.288 14.821L8.73035 24.0829C9.11265 24.4534 9.64788 24.4534 10.336 24.157L21.4994 17.933Z" fill="white"/>
<path d="M21.4994 11.7082L10.336 5.55827C9.64788 5.18779 9.11265 5.26189 8.73035 5.63236L18.288 14.8201L21.4994 11.7082Z" fill="white"/>
<path opacity="0.2" d="M21.4229 17.8586L10.336 23.9344C9.72434 24.3049 9.18911 24.2308 8.80681 23.9344L8.73035 24.0085L8.80681 24.0826C9.18911 24.379 9.72434 24.4531 10.336 24.0826L21.4229 17.8586Z" fill="black"/>
<path opacity="0.12" d="M8.72931 23.9347C8.49992 23.7124 8.42346 23.342 8.42346 22.8974V22.9715C8.42346 23.4161 8.57638 23.7865 8.80577 24.0088V23.9347H8.72931ZM25.2449 15.7843L21.4219 17.8589L21.4983 17.933L25.2449 15.8584C25.7801 15.562 26.0095 15.1915 26.0095 14.821C26.0095 15.1915 25.7037 15.4879 25.2449 15.7843Z" fill="black"/>
<path opacity="0.25" d="M10.3349 5.6319L25.2448 13.8564C25.7036 14.1528 26.0094 14.4492 26.0094 14.8197C26.0094 14.4492 25.78 14.0787 25.2448 13.7824L10.3349 5.5578C9.26441 4.96504 8.42334 5.40961 8.42334 6.59513V6.66923C8.42334 5.5578 9.26441 5.03914 10.3349 5.6319Z" fill="white"/>
</svg>
