<svg width="18" height="15" viewBox="0 0 18 15" fill="none" xmlns="http://www.w3.org/2000/svg">
<path d="M9.35161 0.642822C9.60368 0.714079 9.86383 0.763852 10.1061 0.859816C11.3777 1.36327 12.1282 2.65306 11.9827 4.06208C11.8474 5.37479 10.787 6.49127 9.47219 6.70611C7.5829 7.01442 5.88731 5.4507 6.00614 3.50922C6.09544 2.06044 7.14415 0.892759 8.5504 0.676123C8.5838 0.67111 8.61579 0.654281 8.64848 0.642822C8.88298 0.642822 9.11712 0.642822 9.35161 0.642822Z" fill="#F36523"/>
<path d="M0 7.96439C0.0291797 7.85016 0.0551953 7.73522 0.0882422 7.62207C0.35543 6.70217 1.14012 6.03651 2.10867 5.9828C2.7675 5.94627 3.43336 5.9606 4.09148 6.01144C4.64098 6.05406 5.09063 6.35018 5.46469 6.78489C3.87984 7.87093 3.05543 9.37664 2.99461 11.297C2.42367 11.297 1.86363 11.3421 1.31344 11.2855C0.625781 11.215 0.2025 10.7792 0.0312891 10.0971C0.0260156 10.0752 0.0105469 10.0563 0 10.0359C0 9.34548 0 8.65476 0 7.96439Z" fill="#F36523"/>
<path d="M18 10.0358C17.9881 10.0619 17.9719 10.0866 17.9652 10.1138C17.8 10.7881 17.3057 11.2278 16.6187 11.3087C16.5491 11.317 16.4785 11.3159 16.4082 11.3162C15.9459 11.317 15.4835 11.3162 15.0058 11.3162C14.9443 9.38192 14.1251 7.87944 12.5311 6.78086C12.6468 6.67057 12.7519 6.55384 12.8728 6.45716C13.2778 6.13382 13.7433 5.97197 14.2566 5.97125C14.8479 5.97054 15.4428 5.94547 16.0292 6.0042C17.0209 6.10374 17.7807 6.86429 17.9659 7.86404C17.9723 7.89841 17.9884 7.93064 18 7.96394V10.0354V10.0358Z" fill="#F36523"/>
<path d="M3.30468 0.642822C3.48292 0.695817 3.66679 0.734848 3.83871 0.803956C4.79003 1.18531 5.34832 2.16357 5.23406 3.23529C5.1321 4.19063 4.34285 5.01707 3.37535 5.18179C2.16035 5.3884 0.994566 4.5616 0.781167 3.34235C0.563902 2.10019 1.36054 0.920331 2.578 0.679704C2.61035 0.673259 2.64058 0.655355 2.67187 0.642822C2.88281 0.642822 3.09375 0.642822 3.30468 0.642822Z" fill="#F36523"/>
<path d="M15.3281 0.642822C15.4276 0.671468 15.5271 0.699398 15.6262 0.72876C16.6225 1.02167 17.3165 2.00745 17.254 3.04193C17.1886 4.12475 16.4151 5.00525 15.3738 5.18214C14.137 5.39233 12.9839 4.55301 12.7715 3.28864C12.5687 2.08049 13.3934 0.901711 14.5975 0.678272C14.6309 0.672184 14.6626 0.655355 14.6949 0.64318C14.9062 0.642822 15.1172 0.642822 15.3281 0.642822Z" fill="#F36523"/>
<path d="M8.98669 14.3563C8.23716 14.3563 7.48728 14.3581 6.73775 14.356C5.50939 14.3521 4.50216 13.3312 4.50181 12.0854C4.50181 11.5039 4.4656 10.9206 4.61431 10.3473C5.00243 8.84772 6.24521 7.70546 7.76923 7.54289C8.66325 7.44764 9.57275 7.41971 10.465 7.57583C12.0411 7.85155 13.2845 9.20293 13.4628 10.8125C13.5303 11.4201 13.5672 12.0378 13.4259 12.6401C13.1907 13.6402 12.2826 14.3528 11.2711 14.3563C10.5097 14.3589 9.74853 14.3567 8.98704 14.3567L8.98669 14.3563Z" fill="#F36523"/>
</svg>
