<svg width="184" height="44" viewBox="0 0 184 44" fill="none" xmlns="http://www.w3.org/2000/svg">
<path d="M183.472 37.3422C183.472 37.8751 183.336 38.4028 183.073 38.8951C182.809 39.3873 182.423 39.8346 181.936 40.2112C181.449 40.5878 180.872 40.8864 180.236 41.0899C179.6 41.2935 178.919 41.398 178.231 41.3974H6.71932C5.32922 41.3985 3.99545 40.9719 3.01134 40.2115C2.02723 39.451 1.47337 38.4189 1.47156 37.3422V5.00358C1.47337 3.92637 2.02701 2.89375 3.01092 2.13245C3.99484 1.37115 5.32859 0.943395 6.71932 0.943115H178.229C178.918 0.943115 179.599 1.04815 180.235 1.25222C180.871 1.45629 181.449 1.7554 181.936 2.13246C182.422 2.50952 182.808 2.95715 183.072 3.44979C183.335 3.94242 183.47 4.4704 183.47 5.00358L183.472 37.3422Z" fill="white"/>
<path d="M176.151 42.34H6.90739C5.21758 42.3397 3.59693 41.8133 2.40104 40.8762C1.20515 39.9391 0.531719 38.6678 0.528503 37.3414L0.528503 5.00385C0.531003 3.6768 1.20399 2.40471 2.39984 1.46664C3.59569 0.528568 5.21674 0.00112008 6.90739 0L176.15 0C177.84 0.00167897 179.461 0.529307 180.656 1.46726C181.852 2.4052 182.525 3.67697 182.529 5.00385V37.3414C182.531 40.0985 179.665 42.34 176.151 42.34Z" fill="black"/>
<path d="M183.472 37.341C183.472 37.8739 183.336 38.4016 183.073 38.8938C182.809 39.3861 182.423 39.8333 181.936 40.2099C181.449 40.5866 180.872 40.8852 180.236 41.0887C179.6 41.2923 178.919 41.3967 178.231 41.3962H6.71932C5.32922 41.3973 3.99545 40.9707 3.01134 40.2103C2.02723 39.4498 1.47337 38.4177 1.47156 37.341V5.00236C1.47337 3.92515 2.02701 2.89253 3.01092 2.13123C3.99484 1.36993 5.32859 0.942174 6.71932 0.941895H178.229C178.918 0.941895 179.599 1.04693 180.235 1.251C180.871 1.45507 181.449 1.75418 181.936 2.13124C182.422 2.5083 182.808 2.95593 183.072 3.44857C183.335 3.9412 183.47 4.46918 183.47 5.00236L183.472 37.341Z" fill="black"/>
<path d="M48.4363 20.9462C48.4056 17.5337 51.2312 15.8735 51.3604 15.7962C49.7602 13.4637 47.2798 13.145 46.4082 13.1196C44.325 12.9004 42.3043 14.3658 41.2431 14.3658C40.1608 14.3658 38.5266 13.1408 36.7654 13.1768C34.499 13.2117 32.3787 14.5235 31.2158 16.5606C28.816 20.7143 30.6058 26.8182 32.9051 30.1756C34.0552 31.821 35.3992 33.6559 37.1583 33.5913C38.8793 33.5214 39.5221 32.4955 41.599 32.4955C43.6567 32.4955 44.2604 33.5913 46.0545 33.55C47.9015 33.5214 49.0644 31.8983 50.1743 30.2392C51.5034 28.3556 52.0372 26.4985 52.0584 26.4032C52.016 26.3883 48.4723 25.0352 48.4363 20.9462ZM45.0473 10.9109C45.9729 9.75368 46.6063 8.17926 46.4305 6.58154C45.0907 6.64084 43.4153 7.50799 42.4505 8.63983C41.5969 9.63721 40.8343 11.272 41.0313 12.8094C42.5363 12.9216 44.0814 12.0502 45.0473 10.9109Z" fill="white"/>
<path d="M138.417 0H67.2424L95.1203 42.34H138.417C139.744 42.3389 141.017 41.8117 141.956 40.8741C142.894 39.9365 143.423 38.665 143.426 37.3383V5.00385C143.423 3.67688 142.895 2.40496 141.956 1.46695C141.017 0.528938 139.745 0.00139963 138.417 0Z" fill="url(#paint0_linear_210_1277)"/>
<path d="M73.3635 33.3563H70.9583L69.6408 29.2175H65.0614L63.8064 33.3563H61.4648L66.0029 19.266H68.8052L73.3635 33.3563ZM69.2437 27.4811L68.0522 23.8018C67.9262 23.4259 67.6889 22.5408 67.3416 21.1474H67.2992C67.1594 21.7467 66.9359 22.6319 66.6299 23.8018L65.4585 27.4811H69.2437ZM85.0111 28.1513C85.0111 29.8793 84.542 31.2451 83.6026 32.2478C82.7617 33.1404 81.7164 33.5861 80.4698 33.5861C79.1237 33.5861 78.1558 33.1065 77.568 32.1451V37.4761H75.31V26.5356C75.31 25.4504 75.2814 24.3376 75.2264 23.1962H77.2121L77.3381 24.8066H77.3805C78.1335 23.5932 79.2762 22.9865 80.8098 22.9865C82.0087 22.9865 83.0095 23.4598 83.8101 24.4074C84.6097 25.3572 85.0111 26.6044 85.0111 28.1513ZM82.7108 28.2339C82.7108 27.245 82.4884 26.4297 82.0415 25.787C81.5533 25.119 80.8977 24.7844 80.0758 24.7844C79.5188 24.7844 79.0125 24.9707 78.5603 25.3381C78.107 25.7087 77.8105 26.1926 77.6718 26.7918C77.6098 27.016 77.5746 27.2466 77.5669 27.479V29.1741C77.5669 29.9121 77.7936 30.5357 78.2468 31.0461C78.7001 31.5543 79.289 31.8095 80.0134 31.8095C80.8638 31.8095 81.5257 31.4802 81.9991 30.8269C82.4736 30.1715 82.7108 29.3075 82.7108 28.2339ZM96.7001 28.1513C96.7001 29.8793 96.2309 31.2451 95.2915 32.2478C94.4496 33.1404 93.4053 33.5861 92.1577 33.5861C90.8117 33.5861 89.8437 33.1065 89.2559 32.1451V37.4761H86.9979V26.5356C86.9979 25.4504 86.9693 24.3376 86.9143 23.1962H88.9L89.0261 24.8066H89.0684C89.8204 23.5932 90.9631 22.9865 92.4977 22.9865C93.6955 22.9865 94.6963 23.4598 95.4991 24.4074C96.2977 25.3572 96.7001 26.6044 96.7001 28.1513ZM94.3987 28.2339C94.3987 27.245 94.1753 26.4297 93.7283 25.787C93.2401 25.119 92.5867 24.7844 91.7648 24.7844C91.2078 24.7844 90.7015 24.9707 90.2472 25.3381C89.7939 25.7087 89.4984 26.1926 89.3597 26.7918C89.2908 27.0714 89.2538 27.299 89.2538 27.479V29.1741C89.2538 29.9121 89.4815 30.5357 89.9326 31.0461C90.3859 31.5532 90.9748 31.8095 91.7013 31.8095C92.5528 31.8095 93.2147 31.4802 93.687 30.8269C94.1615 30.1715 94.3987 29.3075 94.3987 28.2339ZM109.769 29.4039C109.769 30.6035 109.35 31.5786 108.516 32.3314C107.599 33.1531 106.319 33.5649 104.677 33.5649C103.16 33.5649 101.945 33.2727 101.027 32.6872L101.55 30.8057C102.54 31.3923 103.627 31.6845 104.812 31.6845C105.663 31.6845 106.325 31.4918 106.797 31.1096C107.271 30.7263 107.51 30.2139 107.51 29.5743C107.51 29.0015 107.312 28.5219 106.923 28.1312C106.533 27.7416 105.886 27.3784 104.979 27.0449C102.511 26.1248 101.276 24.7791 101.276 23.0088C101.276 21.8526 101.713 20.906 102.583 20.1659C103.454 19.4269 104.608 19.0574 106.044 19.0574C107.327 19.0574 108.395 19.2808 109.244 19.7265L108.677 21.5667C107.879 21.1347 106.977 20.9187 105.969 20.9187C105.173 20.9187 104.548 21.1146 104.101 21.5042C103.725 21.8526 103.534 22.2772 103.534 22.7811C103.534 23.337 103.751 23.7986 104.183 24.1607C104.558 24.4943 105.243 24.8574 106.232 25.2471C107.445 25.7362 108.337 26.3059 108.908 26.9602C109.483 27.6145 109.769 28.4309 109.769 29.4039ZM117.254 24.8903H114.765V29.8232C114.765 31.0778 115.203 31.7036 116.082 31.7036C116.486 31.7036 116.82 31.6697 117.085 31.5988L117.148 33.3129C116.703 33.4792 116.117 33.5628 115.392 33.5628C114.5 33.5628 113.803 33.2907 113.3 32.7465C112.799 32.2023 112.547 31.2906 112.547 30.0074V24.886H111.064V23.192H112.547V21.3317L114.765 20.6625V23.192H117.254V24.8903ZM128.461 28.1926C128.461 29.7543 128.014 31.0365 127.122 32.0392C126.189 33.0715 124.948 33.5861 123.4 33.5861C121.907 33.5861 120.72 33.0917 119.834 32.1038C118.949 31.1138 118.506 29.8666 118.506 28.362C118.506 26.7876 118.964 25.498 119.876 24.4953C120.79 23.4916 122.02 22.9897 123.568 22.9897C125.059 22.9897 126.257 23.4852 127.163 24.4741C128.03 25.4334 128.461 26.6722 128.461 28.1926ZM126.12 28.2445C126.12 27.3138 125.919 26.5155 125.515 25.8474C125.042 25.0406 124.364 24.6372 123.486 24.6372C122.582 24.6372 121.888 25.0406 121.416 25.8474C121.011 26.5155 120.81 27.3276 120.81 28.2869C120.81 29.2186 121.011 30.019 121.416 30.685C121.904 31.4918 122.585 31.8952 123.467 31.8952C124.33 31.8952 125.007 31.4833 125.496 30.6649C125.911 29.9809 126.12 29.1773 126.12 28.2445ZM135.803 25.1814C135.568 25.139 135.33 25.1181 135.091 25.119C134.297 25.119 133.683 25.4175 133.251 26.0189C132.876 26.5483 132.687 27.2175 132.687 28.0253V33.3563H130.429V26.3959C130.431 25.3293 130.41 24.2628 130.364 23.1972H132.33L132.413 25.1412H132.476C132.715 24.4731 133.09 23.9342 133.605 23.5308C134.076 23.1783 134.648 22.9874 135.237 22.9865C135.445 22.9865 135.634 23.0014 135.801 23.0278L135.803 25.1814ZM145.901 27.7956C145.907 28.1387 145.879 28.4816 145.819 28.8194H139.045C139.07 29.8232 139.399 30.5918 140.028 31.1212C140.599 31.5935 141.337 31.8306 142.243 31.8306C143.246 31.8306 144.161 31.6718 144.984 31.351L145.338 32.917C144.376 33.3362 143.241 33.5448 141.931 33.5448C140.355 33.5448 139.118 33.0811 138.218 32.1557C137.32 31.2292 136.87 29.9841 136.87 28.4245C136.87 26.8935 137.288 25.6176 138.126 24.6001C139.003 23.5138 140.188 22.9707 141.679 22.9707C143.144 22.9707 144.252 23.5138 145.005 24.6001C145.602 25.4609 145.901 26.5282 145.901 27.7956ZM143.748 27.2101C143.764 26.5398 143.616 25.9628 143.31 25.4747C142.919 24.8458 142.317 24.5324 141.512 24.5324C140.773 24.5324 140.172 24.8384 139.714 25.4525C139.338 25.9406 139.115 26.5271 139.046 27.2079L143.748 27.2101Z" fill="white"/>
<path d="M64.4104 14.2836C63.7824 14.2836 63.2391 14.2529 62.7869 14.2011V7.38879C63.4194 7.29111 64.0585 7.24297 64.6985 7.24479C67.2879 7.24479 68.4804 8.51852 68.4804 10.5948C68.4804 12.9898 67.0719 14.2836 64.4104 14.2836ZM64.7896 8.1183C64.4401 8.1183 64.1425 8.13947 63.8957 8.19029V13.3688C64.0292 13.39 64.2854 13.3995 64.6455 13.3995C66.3422 13.3995 67.308 12.4339 67.308 10.6255C67.308 9.01298 66.4343 8.1183 64.7896 8.1183ZM72.1967 14.3355C70.7373 14.3355 69.7916 13.246 69.7916 11.7669C69.7916 10.2253 70.7574 9.12627 72.2793 9.12627C73.7175 9.12627 74.6845 10.1639 74.6845 11.6854C74.6845 13.246 73.6879 14.3355 72.1967 14.3355ZM72.2391 9.9373C71.4374 9.9373 70.9237 10.6869 70.9237 11.7351C70.9237 12.7632 71.4479 13.5128 72.2285 13.5128C73.009 13.5128 73.5333 12.7113 73.5333 11.714C73.5333 10.6975 73.0196 9.9373 72.2391 9.9373ZM83.0067 9.22897L81.4445 14.2222H80.4268L79.7797 12.0538C79.6188 11.5234 79.4848 10.9852 79.3783 10.4413H79.3571C79.2756 10.9855 79.1209 11.5308 78.9568 12.0538L78.2684 14.2222H77.24L75.77 9.22897H76.9106L77.4762 11.6028C77.6096 12.1682 77.7219 12.7018 77.8151 13.2058H77.8363C77.9178 12.7854 78.0513 12.2603 78.2472 11.6134L78.9568 9.23003H79.8612L80.5401 11.5625C80.7042 12.1279 80.8377 12.6827 80.9415 13.2068H80.9711C81.0431 12.6933 81.1565 12.1481 81.31 11.5625L81.9169 9.23003L83.0067 9.22897ZM88.7574 14.2222H87.6475V11.355C87.6475 10.472 87.3086 10.0294 86.6403 10.0294C85.9826 10.0294 85.5304 10.5948 85.5304 11.2523V14.2222H84.4205V10.6562C84.4205 10.2147 84.4099 9.74142 84.3792 9.22791H85.3557L85.4076 9.99871H85.4383C85.7369 9.46508 86.3427 9.12627 87.0216 9.12627C88.0701 9.12627 88.7585 9.92777 88.7585 11.2322L88.7574 14.2222ZM91.8181 14.2222H90.7072V6.93774H91.8181V14.2222ZM95.8648 14.3355C94.4065 14.3355 93.4597 13.246 93.4597 11.7669C93.4597 10.2253 94.4256 9.12627 95.9464 9.12627C97.3857 9.12627 98.3515 10.1639 98.3515 11.6854C98.3526 13.246 97.355 14.3355 95.8648 14.3355ZM95.9061 9.9373C95.1044 9.9373 94.5908 10.6869 94.5908 11.7351C94.5908 12.7632 95.1161 13.5128 95.8945 13.5128C96.6761 13.5128 97.1993 12.7113 97.1993 11.714C97.2003 10.6975 96.6877 9.9373 95.9061 9.9373ZM102.728 14.2222L102.647 13.6473H102.617C102.279 14.11 101.784 14.3355 101.157 14.3355C100.262 14.3355 99.6267 13.7087 99.6267 12.8659C99.6267 11.6335 100.695 10.9961 102.545 10.9961V10.904C102.545 10.2465 102.197 9.91718 101.509 9.91718C101.016 9.91718 100.584 10.0411 100.204 10.2878L99.9783 9.55825C100.44 9.27026 101.016 9.12627 101.693 9.12627C102.998 9.12627 103.656 9.81448 103.656 11.192V13.0311C103.656 13.5351 103.679 13.9258 103.728 14.2233L102.728 14.2222ZM102.575 11.7351C101.342 11.7351 100.724 12.0337 100.724 12.742C100.724 13.2661 101.043 13.5224 101.485 13.5224C102.05 13.5224 102.575 13.0914 102.575 12.5059V11.7351ZM109.046 14.2222L108.994 13.4207H108.963C108.645 14.0264 108.109 14.3355 107.36 14.3355C106.156 14.3355 105.264 13.2767 105.264 11.787C105.264 10.2253 106.189 9.12521 107.451 9.12521C108.119 9.12521 108.593 9.35073 108.86 9.80389H108.882V6.93774H109.993V12.8765C109.993 13.3593 110.005 13.8114 110.034 14.2222H109.046ZM108.882 11.2841C108.882 10.5853 108.419 9.98918 107.713 9.98918C106.89 9.98918 106.387 10.7187 106.387 11.7457C106.387 12.7526 106.909 13.4419 107.69 13.4419C108.388 13.4419 108.882 12.8352 108.882 12.1163V11.2841ZM117.037 14.3355C115.578 14.3355 114.633 13.246 114.633 11.7669C114.633 10.2253 115.599 9.12627 117.119 9.12627C118.559 9.12627 119.525 10.1639 119.525 11.6854C119.526 13.246 118.529 14.3355 117.037 14.3355ZM117.078 9.9373C116.277 9.9373 115.764 10.6869 115.764 11.7351C115.764 12.7632 116.288 13.5128 117.067 13.5128C117.849 13.5128 118.372 12.7113 118.372 11.714C118.374 10.6975 117.861 9.9373 117.078 9.9373ZM125.493 14.2222H124.382V11.355C124.382 10.472 124.044 10.0294 123.375 10.0294C122.718 10.0294 122.266 10.5948 122.266 11.2523V14.2222H121.155V10.6562C121.155 10.2147 121.145 9.74142 121.114 9.22791H122.091L122.143 9.99871H122.173C122.471 9.46508 123.078 9.12521 123.755 9.12521C124.804 9.12521 125.493 9.92671 125.493 11.2311V14.2222ZM132.961 10.0612H131.74V12.4858C131.74 13.1031 131.954 13.4112 132.386 13.4112C132.582 13.4112 132.746 13.39 132.878 13.3593L132.909 14.2021C132.694 14.2847 132.406 14.326 132.048 14.326C131.173 14.326 130.65 13.8432 130.65 12.579V10.0612H129.921V9.22897H130.65V8.31417L131.74 7.98489V9.22791H132.961V10.0612ZM138.837 14.2222H137.728V11.3762C137.728 10.4826 137.39 10.0305 136.721 10.0305C136.146 10.0305 135.61 10.4212 135.61 11.2121V14.2222H134.501V6.93774H135.61V9.9373H135.632C135.981 9.39308 136.488 9.12521 137.134 9.12521C138.191 9.12521 138.837 9.94683 138.837 11.2523V14.2222ZM144.856 11.9924H141.526C141.547 12.9379 142.173 13.4715 143.099 13.4715C143.592 13.4715 144.045 13.389 144.446 13.2354L144.618 14.0062C144.146 14.2116 143.59 14.3143 142.943 14.3143C141.381 14.3143 140.456 13.3275 140.456 11.7976C140.456 10.2666 141.403 9.11568 142.818 9.11568C144.094 9.11568 144.895 10.0612 144.895 11.4895C144.902 11.658 144.889 11.8269 144.856 11.9924ZM143.839 11.2015C143.839 10.4307 143.45 9.88648 142.74 9.88648C142.103 9.88648 141.599 10.4413 141.527 11.2015H143.839Z" fill="white"/>
<defs>
<linearGradient id="paint0_linear_210_1277" x1="105.333" y1="42.4524" x2="105.333" y2="-110.246" gradientUnits="userSpaceOnUse">
<stop stop-color="#1A1A1A" stop-opacity="0.1"/>
<stop offset="0.123" stop-color="#212121" stop-opacity="0.151"/>
<stop offset="0.308" stop-color="#353535" stop-opacity="0.227"/>
<stop offset="0.532" stop-color="#575757" stop-opacity="0.318"/>
<stop offset="0.783" stop-color="#858585" stop-opacity="0.421"/>
<stop offset="1" stop-color="#B3B3B3" stop-opacity="0.51"/>
</linearGradient>
</defs>
</svg>
