<svg width="182" height="43" viewBox="0 0 182 43" fill="none" xmlns="http://www.w3.org/2000/svg">
<path d="M175.259 42.3367H6.74074C2.96593 42.3367 0 40.0081 0 37.0446V5.29208C0 2.32852 2.96593 0 6.74074 0H175.259C179.034 0 182 2.32852 182 5.29208V37.0446C182 40.0081 179.034 42.3367 175.259 42.3367Z" fill="black"/>
<path d="M175.259 0.846733C178.36 0.846733 180.921 2.85772 180.921 5.29208V37.0446C180.921 39.4789 178.36 41.4899 175.259 41.4899H6.74074C3.64 41.4899 1.07852 39.4789 1.07852 37.0446V5.29208C1.07852 2.85772 3.64 0.846733 6.74074 0.846733H175.259ZM175.259 0H6.74074C2.96593 0 0 2.43436 0 5.29208V37.0446C0 40.0081 2.96593 42.3367 6.74074 42.3367H175.259C179.034 42.3367 182 40.0081 182 37.0446V5.29208C182 2.43436 179.034 0 175.259 0Z" fill="black"/>
<path d="M73.7708 10.7972C73.7708 11.6439 73.5524 12.3848 73.0063 12.914C72.3509 13.5491 71.5864 13.8666 70.6034 13.8666C69.6204 13.8666 68.8559 13.5491 68.2005 12.914C67.5452 12.279 67.2175 11.5381 67.2175 10.5855C67.2175 9.63296 67.5452 8.89207 68.2005 8.25702C68.8559 7.62197 69.6204 7.30444 70.6034 7.30444C71.0403 7.30444 71.4772 7.41028 71.9141 7.62197C72.3509 7.83365 72.6786 8.04533 72.897 8.36286L72.3509 8.89207C71.9141 8.36286 71.3679 8.15118 70.6034 8.15118C69.9481 8.15118 69.2927 8.36286 68.8559 8.89207C68.3097 9.31543 68.0913 9.95048 68.0913 10.6914C68.0913 11.4323 68.3097 12.0673 68.8559 12.4907C69.402 12.914 69.9481 13.2316 70.6034 13.2316C71.3679 13.2316 71.9141 13.0199 72.4602 12.4907C72.7878 12.1732 73.0063 11.7498 73.0063 11.2206H70.6034V10.3739H73.7708V10.7972ZM78.795 8.15118H75.846V10.1622H78.5766V10.9031H75.846V12.914H78.795V13.7608H74.9723V7.41028H78.795V8.15118ZM82.3993 13.7608H81.5256V8.15118H79.6688V7.41028H84.2561V8.15118H82.3993V13.7608ZM87.4235 13.7608V7.41028H88.2973V13.7608H87.4235ZM92.0108 13.7608H91.137V8.15118H89.2803V7.41028H93.7584V8.15118H91.9016V13.7608H92.0108ZM102.387 12.914C101.732 13.5491 100.967 13.8666 99.984 13.8666C99.001 13.8666 98.2364 13.5491 97.5811 12.914C96.9258 12.279 96.5981 11.5381 96.5981 10.5855C96.5981 9.63296 96.9258 8.89207 97.5811 8.25702C98.2364 7.62197 99.001 7.30444 99.984 7.30444C100.967 7.30444 101.732 7.62197 102.387 8.25702C103.042 8.89207 103.37 9.63296 103.37 10.5855C103.37 11.5381 103.042 12.279 102.387 12.914ZM98.2365 12.3848C98.6733 12.8082 99.3287 13.1257 99.984 13.1257C100.639 13.1257 101.295 12.914 101.732 12.3848C102.168 11.9615 102.496 11.3264 102.496 10.5855C102.496 9.84464 102.278 9.20959 101.732 8.78623C101.295 8.36286 100.639 8.04533 99.984 8.04533C99.3287 8.04533 98.6733 8.25702 98.2365 8.78623C97.7996 9.20959 97.4719 9.84464 97.4719 10.5855C97.4719 11.3264 97.6903 11.9615 98.2365 12.3848ZM104.571 13.7608V7.41028H105.554L108.722 12.3848V7.41028H109.595V13.7608H108.722L105.336 8.57454V13.7608H104.571Z" fill="white" stroke="white" stroke-width="1.18519" stroke-miterlimit="10"/>
<path d="M96.3793 23.0747C93.758 23.0747 91.6828 24.9798 91.6828 27.6258C91.6828 30.166 93.758 32.177 96.3793 32.177C99.0007 32.177 101.076 30.2719 101.076 27.6258C101.076 24.874 99.0007 23.0747 96.3793 23.0747ZM96.3793 30.2719C94.9595 30.2719 93.758 29.1076 93.758 27.52C93.758 25.9324 94.9595 24.7681 96.3793 24.7681C97.7992 24.7681 99.0007 25.8265 99.0007 27.52C99.0007 29.1076 97.7992 30.2719 96.3793 30.2719ZM86.2217 23.0747C83.6004 23.0747 81.5252 24.9798 81.5252 27.6258C81.5252 30.166 83.6004 32.177 86.2217 32.177C88.8431 32.177 90.9183 30.2719 90.9183 27.6258C90.9183 24.874 88.8431 23.0747 86.2217 23.0747ZM86.2217 30.2719C84.8019 30.2719 83.6004 29.1076 83.6004 27.52C83.6004 25.9324 84.8019 24.7681 86.2217 24.7681C87.6416 24.7681 88.8431 25.8265 88.8431 27.52C88.8431 29.1076 87.6416 30.2719 86.2217 30.2719ZM74.0982 24.4506V26.3557H78.7947C78.6855 27.4142 78.2486 28.2609 77.7025 28.7901C77.0471 29.4252 75.9549 30.166 74.0982 30.166C71.1492 30.166 68.9647 27.9434 68.9647 25.0856C68.9647 22.2279 71.2584 20.0052 74.0982 20.0052C75.6273 20.0052 76.8287 20.6403 77.7025 21.3812L79.1223 20.0052C77.9209 18.9468 76.3918 18.1001 74.2074 18.1001C70.2754 18.1001 66.8895 21.2753 66.8895 25.0856C66.8895 28.8959 70.2754 32.0712 74.2074 32.0712C76.3918 32.0712 77.9209 31.4361 79.2316 30.0602C80.5422 28.7901 80.9791 26.9908 80.9791 25.6149C80.9791 25.1915 80.9791 24.7681 80.8699 24.4506H74.0982ZM123.685 25.9324C123.248 24.874 122.156 23.0747 119.753 23.0747C117.35 23.0747 115.384 24.874 115.384 27.6258C115.384 30.166 117.35 32.177 119.971 32.177C122.046 32.177 123.357 30.9069 123.794 30.166L122.265 29.1076C121.719 29.8485 121.063 30.3777 119.971 30.3777C118.879 30.3777 118.224 29.9544 117.678 29.0018L123.903 26.4616L123.685 25.9324ZM117.35 27.4142C117.35 25.7207 118.77 24.7681 119.753 24.7681C120.517 24.7681 121.282 25.1915 121.5 25.7207L117.35 27.4142ZM112.216 31.7537H114.292V18.5235H112.216V31.7537ZM108.94 24.0272C108.394 23.498 107.52 22.9688 106.428 22.9688C104.134 22.9688 101.95 24.9798 101.95 27.52C101.95 30.0602 104.025 31.9654 106.428 31.9654C107.52 31.9654 108.394 31.4361 108.831 30.9069H108.94V31.542C108.94 33.2355 107.957 34.188 106.428 34.188C105.226 34.188 104.353 33.3413 104.134 32.6004L102.387 33.3413C102.933 34.5056 104.243 35.9873 106.537 35.9873C108.94 35.9873 110.906 34.6114 110.906 31.3303V23.2863H108.94V24.0272ZM106.537 30.2719C105.117 30.2719 103.916 29.1076 103.916 27.52C103.916 25.9324 105.117 24.7681 106.537 24.7681C107.957 24.7681 109.049 25.9324 109.049 27.52C109.049 29.1076 107.957 30.2719 106.537 30.2719ZM133.187 18.5235H128.272V31.7537H130.347V26.7791H133.187C135.481 26.7791 137.665 25.1915 137.665 22.6513C137.665 20.1111 135.481 18.5235 133.187 18.5235ZM133.296 24.874H130.347V20.3228H133.296C134.825 20.3228 135.699 21.5929 135.699 22.5454C135.59 23.7097 134.716 24.874 133.296 24.874ZM145.857 22.9688C144.328 22.9688 142.799 23.6039 142.252 24.9798L144.109 25.7207C144.546 24.9798 145.201 24.7681 145.966 24.7681C147.058 24.7681 148.041 25.4032 148.15 26.4616V26.5674C147.823 26.3557 146.949 26.0382 146.075 26.0382C144.109 26.0382 142.143 27.0966 142.143 29.0018C142.143 30.8011 143.782 31.9654 145.529 31.9654C146.949 31.9654 147.604 31.3303 148.15 30.6953H148.26V31.7537H150.226V26.6733C150.007 24.3448 148.15 22.9688 145.857 22.9688ZM145.638 30.2719C144.983 30.2719 144 29.9544 144 29.1076C144 28.0492 145.201 27.7317 146.184 27.7317C147.058 27.7317 147.495 27.9434 148.041 28.1551C147.823 29.4252 146.73 30.2719 145.638 30.2719ZM157.107 23.2863L154.813 29.0018H154.704L152.301 23.2863H150.116L153.721 31.3303L151.645 35.7757H153.721L159.291 23.2863H157.107ZM138.757 31.7537H140.833V18.5235H138.757V31.7537Z" fill="white"/>
<path d="M33.3592 7.94019C33.0316 8.25771 32.9224 8.78692 32.9224 9.42197V32.813C32.9224 33.448 33.1408 33.9772 33.4685 34.2948L33.5777 34.4006L47.1212 21.2762V21.0645L33.3592 7.94019Z" fill="white"/>
<path d="M51.4907 25.7192L47.0126 21.3797V21.0622L51.4907 16.7227L51.5999 16.8285L56.9517 19.7921C58.4808 20.6388 58.4808 22.0147 56.9517 22.8615L51.4907 25.7192Z" fill="white"/>
<path d="M51.6006 25.6167L47.0133 21.1714L33.3606 34.4016C33.9067 34.9308 34.6713 34.9308 35.6542 34.5074L51.6006 25.6167Z" fill="white"/>
<path d="M51.6006 16.7243L35.6542 7.93948C34.6713 7.41027 33.9067 7.51611 33.3606 8.04532L47.0133 21.1697L51.6006 16.7243Z" fill="white"/>
<path opacity="0.2" d="M51.4914 25.5105L35.6542 34.1895C34.7805 34.7187 34.0159 34.6129 33.4698 34.1895L33.3606 34.2954L33.4698 34.4012C34.0159 34.8246 34.7805 34.9304 35.6542 34.4012L51.4914 25.5105Z" fill="black"/>
<path opacity="0.12" d="M33.3592 34.1899C33.0316 33.8724 32.9224 33.3432 32.9224 32.7081V32.814C32.9224 33.449 33.1408 33.9782 33.4685 34.2957V34.1899H33.3592ZM56.9511 22.5473L51.49 25.5109L51.5992 25.6167L56.9511 22.6532C57.7157 22.2298 58.0433 21.7006 58.0433 21.1714C58.0433 21.7006 57.6064 22.124 56.9511 22.5473Z" fill="black"/>
<path opacity="0.25" d="M35.6527 8.04469L56.9509 19.7931C57.6062 20.2165 58.0431 20.6398 58.0431 21.1691C58.0431 20.6398 57.7154 20.1106 56.9509 19.6873L35.6527 7.93885C34.1236 7.09212 32.9221 7.72717 32.9221 9.42063V9.52647C32.9221 7.93885 34.1236 7.19796 35.6527 8.04469Z" fill="white"/>
</svg>
