<svg width="786" height="199" viewBox="0 0 786 199" fill="none" xmlns="http://www.w3.org/2000/svg">
<g opacity="0.6">
<path fill-rule="evenodd" clip-rule="evenodd" d="M647.556 194.368H783.597V152.863H698.941V120.252H776.943V78.7476H698.941V46.1368H783.967V4.63217H647.556V194.368ZM700.975 48.175H786V2.594H645.523V196.406H785.63V150.825H700.975V122.29H778.976V76.7094H700.975V48.175Z" fill="#E7E7E7"/>
<path fill-rule="evenodd" clip-rule="evenodd" d="M469.049 4.63217H405.095V194.368H455.371V83.9357H456.85L498.993 192.885H529.306L571.449 84.6769H572.928V194.368H623.204V4.63217H559.25L515.259 112.1H513.041L469.049 4.63217ZM514.15 109.44L470.413 2.594H403.062V196.406H457.404V91.007L497.601 194.924H530.695L570.895 91.7049V196.406H625.237V2.594H557.887L514.15 109.44Z" fill="#E7E7E7"/>
<path fill-rule="evenodd" clip-rule="evenodd" d="M247.128 194.368L258.065 158.051H320.478L331.414 194.368H386.866L324.391 4.63217H254.152L191.677 194.368H247.128ZM269.672 119.511H308.871L290.011 56.8836H288.532L269.672 119.511ZM289.271 61.4809L272.409 117.473H306.133L289.271 61.4809ZM318.967 160.089L329.904 196.406H389.678L325.861 2.594H252.682L188.865 196.406H248.638L259.575 160.089H318.967Z" fill="#E7E7E7"/>
<path fill-rule="evenodd" clip-rule="evenodd" d="M124.095 69.2979L123.715 67.7453C122.967 64.6881 121.8 62.0536 120.235 59.8127L120.221 59.7934C118.646 57.4807 116.678 55.5341 114.303 53.9473L114.28 53.9317L114.257 53.9154C111.959 52.2859 109.236 51.0539 106.057 50.2429L106.036 50.2374L106.015 50.2315C102.891 49.3615 99.4107 48.9162 95.5612 48.9162C87.2718 48.9162 80.3236 50.8996 74.6154 54.7713C68.9546 58.6524 64.5674 64.2706 61.4925 71.7361C58.4752 79.2117 56.9301 88.3235 56.9301 99.1294C56.9301 110.072 58.417 119.322 61.3242 126.935C64.2217 134.523 68.491 140.222 74.0857 144.153C79.6521 148.065 86.6454 150.084 95.1915 150.084C102.835 150.084 109.034 148.965 113.872 146.829L113.88 146.825C118.8 144.679 122.363 141.688 124.699 137.895C126.612 134.79 127.775 131.208 128.147 127.108H93.8977V86.3445H181.88V114.694C181.88 132.279 178.151 147.449 170.594 160.116C163.125 172.679 152.796 182.332 139.644 189.05L139.641 189.052C126.561 195.703 111.604 199 94.8218 199C76.1049 199 59.5784 195.013 45.3058 186.973C31.0357 178.934 19.891 167.47 11.8893 152.628L11.8861 152.622C3.93385 137.754 0 120.146 0 99.8706C0 83.979 2.40283 69.8217 7.25706 57.4354L7.26034 57.427C12.1607 45.0832 18.9647 34.616 27.6869 26.0616C36.3882 17.4661 46.4524 10.9825 57.8645 6.62065C69.2643 2.20176 81.466 0 94.4522 0C105.858 0 116.488 1.63341 126.326 4.9198C136.204 8.13754 144.951 12.7533 152.545 18.7783C160.199 24.7405 166.382 31.8253 171.075 40.0273C175.782 48.2517 178.638 57.2665 179.652 67.0491L179.885 69.2979H124.095ZM151.29 20.3817C143.896 14.5143 135.363 10.0056 125.69 6.85569C116.078 3.64401 105.666 2.03817 94.4522 2.03817C81.6983 2.03817 69.7455 4.19988 58.5936 8.52327C47.4417 12.7849 37.6145 19.1156 29.112 27.5154C20.6094 35.8534 13.9553 46.0751 9.14948 58.1806C4.4053 70.2862 2.03322 84.1828 2.03322 99.8706C2.03322 119.882 5.91481 137.144 13.678 151.659C21.5028 166.173 32.3774 177.352 46.3019 185.196C60.2263 193.04 76.3997 196.962 94.8218 196.962C111.334 196.962 125.967 193.719 138.721 187.234C151.536 180.687 161.579 171.299 168.849 159.07C176.181 146.779 179.847 131.987 179.847 114.694V88.3827H95.9309V125.07H130.299C130.29 125.445 130.274 125.818 130.253 126.187C130.235 126.496 130.214 126.803 130.188 127.108C129.809 131.562 128.556 135.514 126.429 138.966C123.841 143.166 119.929 146.409 114.692 148.694C109.516 150.979 103.016 152.122 95.1915 152.122C86.3193 152.122 78.895 150.022 72.9185 145.822C66.9421 141.622 62.4444 135.57 59.4254 127.664C56.4064 119.758 54.8969 110.247 54.8969 99.1294C54.8969 88.1356 56.468 78.7477 59.6102 70.9655C62.8141 63.1834 67.435 57.2233 73.4731 53.0852C79.5727 48.9471 86.9354 46.878 95.5612 46.878C99.566 46.878 103.232 47.3412 106.559 48.2677C109.948 49.1324 112.905 50.4603 115.431 52.2514C118.019 53.9808 120.175 56.1116 121.901 58.6439C123.626 61.1144 124.889 63.9863 125.69 67.2598H177.629C177.558 66.5764 177.478 65.897 177.389 65.2216C176.236 56.4965 173.543 48.4364 169.312 41.0414C164.752 33.074 158.745 26.1875 151.29 20.3817Z" fill="#E7E7E7"/>
</g>
</svg>
