<svg width="20" height="25" viewBox="0 0 20 25" fill="none" xmlns="http://www.w3.org/2000/svg">
<path d="M16.7046 13.0693C16.6766 9.96455 19.2474 8.45407 19.365 8.38375C17.909 6.26156 15.6524 5.9716 14.8593 5.94848C12.964 5.74908 11.1255 7.08231 10.16 7.08231C9.17523 7.08231 7.68844 5.96775 6.08601 6.0005C4.02397 6.03229 2.0949 7.22584 1.0369 9.07926C-1.14656 12.8584 0.481879 18.4119 2.57379 21.4666C3.62023 22.9636 4.84301 24.633 6.4435 24.5742C8.00931 24.5106 8.59419 23.5772 10.4838 23.5772C12.356 23.5772 12.9052 24.5742 14.5375 24.5367C16.218 24.5106 17.276 23.0339 18.2858 21.5244C19.4951 19.8106 19.9807 18.121 20 18.0343C19.9615 18.0208 16.7373 16.7897 16.7046 13.0693ZM13.6212 3.939C14.4633 2.8861 15.0395 1.45365 14.8796 0C13.6607 0.0539458 12.1363 0.842903 11.2585 1.87269C10.4818 2.78013 9.78806 4.2675 9.96728 5.66623C11.3365 5.76834 12.7424 4.97553 13.6212 3.939Z" fill="white"/>
</svg>
