<svg width="23" height="25" viewBox="0 0 23 25" fill="none" xmlns="http://www.w3.org/2000/svg">
<path d="M2.47055 8.09766C2.0398 8.09766 1.67433 8.24787 1.3739 8.54829C1.07348 8.84872 0.923218 9.20922 0.923218 9.62998V16.0903C0.923218 16.5216 1.07343 16.8867 1.3739 17.1872C1.67433 17.4876 2.0398 17.6379 2.47055 17.6379C2.90098 17.6379 3.26424 17.4877 3.56001 17.1872C3.8552 16.8868 4.00319 16.5216 4.00319 16.0903V9.62998C4.00319 9.20918 3.85298 8.84872 3.55251 8.54829C3.25204 8.24787 2.89131 8.09766 2.47055 8.09766Z" fill="white"/>
<path d="M14.9107 2.29848L15.9774 0.330657C16.0474 0.200379 16.0225 0.100479 15.9024 0.0302315C15.7721 -0.0303419 15.672 0.000351594 15.602 0.120142L14.5204 2.1037C13.5686 1.68289 12.562 1.4721 11.5004 1.4721C10.4387 1.4721 9.43194 1.68294 8.48053 2.1037L7.39884 0.120142C7.32855 0.000351594 7.22842 -0.0300707 7.09842 0.0302315C6.97808 0.100795 6.95318 0.200379 7.02347 0.330657L8.09024 2.29848C7.00855 2.8501 6.14705 3.61835 5.50606 4.60488C4.86507 5.59196 4.54443 6.67061 4.54443 7.84275H18.4413C18.4413 6.67088 18.1207 5.59218 17.4797 4.60488C16.8387 3.61835 15.9821 2.8501 14.9107 2.29848ZM8.74335 5.16071C8.62799 5.27634 8.4902 5.33389 8.33004 5.33389C8.16957 5.33389 8.03459 5.27634 7.92447 5.16071C7.81436 5.04562 7.7593 4.90838 7.7593 4.74768C7.7593 4.58752 7.81436 4.45001 7.92447 4.33465C8.03459 4.21956 8.16989 4.16202 8.33004 4.16202C8.4902 4.16202 8.62799 4.21956 8.74335 4.33465C8.85844 4.45028 8.91625 4.58752 8.91625 4.74768C8.91593 4.90811 8.85816 5.04562 8.74335 5.16071ZM15.0758 5.16071C14.9655 5.27634 14.8302 5.33389 14.6703 5.33389C14.5098 5.33389 14.372 5.27634 14.2569 5.16071C14.1416 5.04562 14.084 4.90838 14.084 4.74768C14.084 4.58752 14.1416 4.45001 14.2569 4.33465C14.372 4.21956 14.5098 4.16202 14.6703 4.16202C14.8304 4.16202 14.9654 4.21956 15.0758 4.33465C15.186 4.45028 15.241 4.58752 15.241 4.74768C15.241 4.90811 15.186 5.04562 15.0758 5.16071Z" fill="white"/>
<path d="M4.604 18.3894C4.604 18.8506 4.76416 19.2409 5.08452 19.5613C5.40515 19.8817 5.79554 20.0418 6.25639 20.0418H7.36823L7.38346 23.4527C7.38346 23.8834 7.53368 24.2491 7.8341 24.5496C8.13453 24.85 8.4953 25.0003 8.91579 25.0003C9.34627 25.0003 9.71197 24.85 10.0124 24.5496C10.3129 24.2491 10.4631 23.8834 10.4631 23.4527V20.0421H12.5364V23.4527C12.5364 23.8834 12.6865 24.2491 12.987 24.5496C13.2875 24.85 13.6529 25.0003 14.0836 25.0003C14.5141 25.0003 14.8798 24.85 15.1803 24.5496C15.4808 24.2491 15.6309 23.8834 15.6309 23.4527V20.0421H16.7578C17.2084 20.0421 17.5938 19.8819 17.9147 19.5616C18.2351 19.2412 18.3953 18.8508 18.3953 18.3897V8.3833H4.604V18.3894Z" fill="white"/>
<path d="M20.5296 8.09766C20.1088 8.09766 19.7483 8.24565 19.4478 8.54084C19.1474 8.83656 18.9972 9.19982 18.9972 9.62998V16.0903C18.9972 16.5216 19.1474 16.8867 19.4478 17.1872C19.7483 17.4877 20.109 17.6379 20.5296 17.6379C20.96 17.6379 21.3257 17.4877 21.6262 17.1872C21.9267 16.8867 22.0769 16.5216 22.0769 16.0903V9.62998C22.0769 9.19978 21.9267 8.83656 21.6262 8.54084C21.3257 8.24565 20.96 8.09766 20.5296 8.09766Z" fill="white"/>
</svg>
