<svg width="8" height="14" viewBox="0 0 8 14" fill="none" xmlns="http://www.w3.org/2000/svg">
<path d="M6.04046 7.06478C5.94691 6.98601 5.88783 6.94169 5.83367 6.88753C4.08579 5.13965 2.33298 3.39177 0.590021 1.63896C0.481701 1.53064 0.393077 1.38293 0.353688 1.23522C0.289681 1.00874 0.427541 0.762558 0.634333 0.644391C0.841125 0.526224 1.10208 0.540995 1.2941 0.693626C1.35318 0.737939 1.40242 0.7921 1.45658 0.846259C3.35709 2.74677 5.25761 4.64729 7.16304 6.5478C7.53232 6.91707 7.53232 7.21249 7.16797 7.57684C5.24776 9.49705 3.32755 11.4123 1.41226 13.3325C1.23009 13.5147 1.02822 13.6181 0.767271 13.5393C0.368459 13.4212 0.215826 12.9485 0.46693 12.6186C0.511243 12.5595 0.565403 12.5103 0.619563 12.4561C2.36252 10.7132 4.1104 8.9653 5.85336 7.22234C5.89768 7.1731 5.95676 7.13371 6.04046 7.06478Z" fill="#CCCCCC"/>
</svg>
