<svg width="1014" height="190" viewBox="0 0 1014 190" fill="none" xmlns="http://www.w3.org/2000/svg">
<g opacity="0.6">
<mask id="path-1-outside-1_94_109" maskUnits="userSpaceOnUse" x="0" y="0" width="1014" height="190" fill="black">
<rect fill="white" width="1014" height="190"/>
<path d="M863.267 185.356V4.47343H941.696C955.474 4.47343 967.044 6.32818 976.406 10.0377C985.827 13.7472 992.923 18.9876 997.692 25.7589C1002.52 32.5302 1004.93 40.5086 1004.93 49.694C1004.93 56.3476 1003.46 62.4123 1000.52 67.8882C997.633 73.3642 993.57 77.9569 988.33 81.6664C983.089 85.317 976.966 87.8489 969.959 89.262V91.0285C977.731 91.3229 984.797 93.2954 991.156 96.946C997.515 100.538 1002.58 105.513 1006.35 111.872C1010.12 118.173 1012 125.592 1012 134.129C1012 144.021 1009.41 152.824 1004.23 160.537C999.105 168.251 991.804 174.316 982.324 178.732C972.844 183.148 961.539 185.356 948.409 185.356H863.267ZM912.373 146.141H935.337C943.58 146.141 949.763 144.61 953.884 141.548C958.006 138.428 960.067 133.835 960.067 127.77C960.067 123.531 959.095 119.939 957.152 116.995C955.209 114.051 952.442 111.813 948.85 110.283C945.317 108.752 941.048 107.986 936.044 107.986H912.373V146.141ZM912.373 77.6036H932.511C936.809 77.6036 940.607 76.9265 943.904 75.5722C947.201 74.2179 949.763 72.2749 951.588 69.743C953.472 67.1522 954.414 64.0021 954.414 60.2926C954.414 54.6989 952.412 50.43 948.409 47.486C944.405 44.4831 939.341 42.9816 933.217 42.9816H912.373V77.6036Z"/>
<path d="M840.546 94.9142C840.546 115.051 836.63 132.039 828.799 145.876C820.968 159.654 810.399 170.105 797.092 177.23C783.784 184.295 768.946 187.828 752.578 187.828C736.091 187.828 721.194 184.266 707.887 177.141C694.639 169.958 684.099 159.477 676.268 145.699C668.496 131.862 664.609 114.934 664.609 94.9142C664.609 74.7769 668.496 57.8192 676.268 44.041C684.099 30.204 694.639 19.7526 707.887 12.6869C721.194 5.5623 736.091 2 752.578 2C768.946 2 783.784 5.5623 797.092 12.6869C810.399 19.7526 820.968 30.204 828.799 44.041C836.63 57.8192 840.546 74.7769 840.546 94.9142ZM790.026 94.9142C790.026 84.0801 788.583 74.9535 785.698 67.5345C782.872 60.0566 778.662 54.4041 773.068 50.5768C767.533 46.6907 760.703 44.7476 752.578 44.7476C744.452 44.7476 737.592 46.6907 731.999 50.5768C726.464 54.4041 722.254 60.0566 719.369 67.5345C716.542 74.9535 715.129 84.0801 715.129 94.9142C715.129 105.748 716.542 114.904 719.369 122.382C722.254 129.801 726.464 135.454 731.999 139.34C737.592 143.167 744.452 145.081 752.578 145.081C760.703 145.081 767.533 143.167 773.068 139.34C778.662 135.454 782.872 129.801 785.698 122.382C788.583 114.904 790.026 105.748 790.026 94.9142Z"/>
<path d="M433.605 4.47343H494.723L536.764 106.926H538.884L580.925 4.47343H642.044V185.356H593.997V80.7832H592.583L552.309 183.943H523.339L483.065 80.0766H481.652V185.356H433.605V4.47343Z"/>
<path d="M410.332 4.47343V185.356H361.225V4.47343H410.332Z"/>
<path d="M337.997 4.47343V185.356H297.016L231.658 90.3219H230.598V185.356H181.491V4.47343H223.179L287.477 99.154H288.89V4.47343H337.997Z"/>
<path d="M109.046 4.47343H158.152V120.351C158.152 134.129 154.855 146.053 148.26 156.121C141.725 166.131 132.598 173.874 120.881 179.35C109.163 184.767 95.5619 187.475 80.0762 187.475C64.4727 187.475 50.8123 184.767 39.095 179.35C27.3777 173.874 18.2511 166.131 11.7154 156.121C5.23845 146.053 2 134.129 2 120.351V4.47343H51.1067V116.112C51.1067 121.705 52.3432 126.71 54.8162 131.126C57.2892 135.484 60.7043 138.899 65.0615 141.372C69.4776 143.845 74.4825 145.081 80.0762 145.081C85.7287 145.081 90.7336 143.845 95.0908 141.372C99.448 138.899 102.863 135.484 105.336 131.126C107.809 126.71 109.046 121.705 109.046 116.112V4.47343Z"/>
</mask>
<path d="M863.267 185.356V4.47343H941.696C955.474 4.47343 967.044 6.32818 976.406 10.0377C985.827 13.7472 992.923 18.9876 997.692 25.7589C1002.52 32.5302 1004.93 40.5086 1004.93 49.694C1004.93 56.3476 1003.46 62.4123 1000.52 67.8882C997.633 73.3642 993.57 77.9569 988.33 81.6664C983.089 85.317 976.966 87.8489 969.959 89.262V91.0285C977.731 91.3229 984.797 93.2954 991.156 96.946C997.515 100.538 1002.58 105.513 1006.35 111.872C1010.12 118.173 1012 125.592 1012 134.129C1012 144.021 1009.41 152.824 1004.23 160.537C999.105 168.251 991.804 174.316 982.324 178.732C972.844 183.148 961.539 185.356 948.409 185.356H863.267ZM912.373 146.141H935.337C943.58 146.141 949.763 144.61 953.884 141.548C958.006 138.428 960.067 133.835 960.067 127.77C960.067 123.531 959.095 119.939 957.152 116.995C955.209 114.051 952.442 111.813 948.85 110.283C945.317 108.752 941.048 107.986 936.044 107.986H912.373V146.141ZM912.373 77.6036H932.511C936.809 77.6036 940.607 76.9265 943.904 75.5722C947.201 74.2179 949.763 72.2749 951.588 69.743C953.472 67.1522 954.414 64.0021 954.414 60.2926C954.414 54.6989 952.412 50.43 948.409 47.486C944.405 44.4831 939.341 42.9816 933.217 42.9816H912.373V77.6036Z" stroke="#E9E9E9" stroke-width="4" mask="url(#path-1-outside-1_94_109)"/>
<path d="M840.546 94.9142C840.546 115.051 836.63 132.039 828.799 145.876C820.968 159.654 810.399 170.105 797.092 177.23C783.784 184.295 768.946 187.828 752.578 187.828C736.091 187.828 721.194 184.266 707.887 177.141C694.639 169.958 684.099 159.477 676.268 145.699C668.496 131.862 664.609 114.934 664.609 94.9142C664.609 74.7769 668.496 57.8192 676.268 44.041C684.099 30.204 694.639 19.7526 707.887 12.6869C721.194 5.5623 736.091 2 752.578 2C768.946 2 783.784 5.5623 797.092 12.6869C810.399 19.7526 820.968 30.204 828.799 44.041C836.63 57.8192 840.546 74.7769 840.546 94.9142ZM790.026 94.9142C790.026 84.0801 788.583 74.9535 785.698 67.5345C782.872 60.0566 778.662 54.4041 773.068 50.5768C767.533 46.6907 760.703 44.7476 752.578 44.7476C744.452 44.7476 737.592 46.6907 731.999 50.5768C726.464 54.4041 722.254 60.0566 719.369 67.5345C716.542 74.9535 715.129 84.0801 715.129 94.9142C715.129 105.748 716.542 114.904 719.369 122.382C722.254 129.801 726.464 135.454 731.999 139.34C737.592 143.167 744.452 145.081 752.578 145.081C760.703 145.081 767.533 143.167 773.068 139.34C778.662 135.454 782.872 129.801 785.698 122.382C788.583 114.904 790.026 105.748 790.026 94.9142Z" stroke="#E9E9E9" stroke-width="4" mask="url(#path-1-outside-1_94_109)"/>
<path d="M433.605 4.47343H494.723L536.764 106.926H538.884L580.925 4.47343H642.044V185.356H593.997V80.7832H592.583L552.309 183.943H523.339L483.065 80.0766H481.652V185.356H433.605V4.47343Z" stroke="#E9E9E9" stroke-width="4" mask="url(#path-1-outside-1_94_109)"/>
<path d="M410.332 4.47343V185.356H361.225V4.47343H410.332Z" stroke="#E9E9E9" stroke-width="4" mask="url(#path-1-outside-1_94_109)"/>
<path d="M337.997 4.47343V185.356H297.016L231.658 90.3219H230.598V185.356H181.491V4.47343H223.179L287.477 99.154H288.89V4.47343H337.997Z" stroke="#E9E9E9" stroke-width="4" mask="url(#path-1-outside-1_94_109)"/>
<path d="M109.046 4.47343H158.152V120.351C158.152 134.129 154.855 146.053 148.26 156.121C141.725 166.131 132.598 173.874 120.881 179.35C109.163 184.767 95.5619 187.475 80.0762 187.475C64.4727 187.475 50.8123 184.767 39.095 179.35C27.3777 173.874 18.2511 166.131 11.7154 156.121C5.23845 146.053 2 134.129 2 120.351V4.47343H51.1067V116.112C51.1067 121.705 52.3432 126.71 54.8162 131.126C57.2892 135.484 60.7043 138.899 65.0615 141.372C69.4776 143.845 74.4825 145.081 80.0762 145.081C85.7287 145.081 90.7336 143.845 95.0908 141.372C99.448 138.899 102.863 135.484 105.336 131.126C107.809 126.71 109.046 121.705 109.046 116.112V4.47343Z" stroke="#E9E9E9" stroke-width="4" mask="url(#path-1-outside-1_94_109)"/>
</g>
</svg>
