<svg width="15" height="18" viewBox="0 0 15 18" fill="none" xmlns="http://www.w3.org/2000/svg">
<g clip-path="url(#clip0_248_174)">
<path d="M14.9992 14.3109V14.7097C14.8985 15.1634 14.6646 15.5347 14.3072 15.832C13.9066 16.1639 13.4533 16.4075 12.9724 16.6009C11.8618 17.0487 10.696 17.2684 9.5123 17.3925C7.84164 17.5681 6.17337 17.5334 4.5135 17.2648C3.57443 17.1131 2.65454 16.8887 1.78263 16.4982C1.24653 16.2583 0.746409 15.9657 0.36982 15.5001C-0.0631375 14.964 -0.120705 14.3323 0.222303 13.7389C0.49575 13.2649 0.929906 12.9676 1.39884 12.7157C2.15682 12.3062 2.97836 12.0745 3.81429 11.8895C4.08294 11.8298 4.35519 11.7832 4.63823 11.7283C4.61065 11.6793 4.59505 11.6447 4.57467 11.6136C4.00019 10.7193 3.41851 9.82982 2.85243 8.92955C2.05608 7.66035 1.82101 6.28607 2.13403 4.82343C2.31393 3.98167 2.68332 3.22587 3.22662 2.55843C3.9678 1.64742 4.90328 1.0158 6.04264 0.707754C6.40604 0.608653 6.78863 0.568057 7.16402 0.5C7.38589 0.5 7.60897 0.5 7.83084 0.5C7.98915 0.522686 8.14746 0.544178 8.30578 0.566863C9.34319 0.719694 10.2631 1.1364 11.051 1.81936C12.2288 2.84022 12.88 4.13211 12.982 5.68907C13.0575 6.84485 12.7817 7.91705 12.1664 8.89612C11.5979 9.79997 11.0139 10.6943 10.437 11.5921C10.4118 11.6315 10.3914 11.6745 10.3626 11.7271C10.4154 11.739 10.4514 11.7498 10.4886 11.7557C11.442 11.9205 12.3811 12.1414 13.2614 12.5497C14.0578 12.9187 14.7797 13.3724 14.9992 14.3109ZM7.49623 14.3252C7.5418 14.2559 7.57299 14.2106 7.60297 14.1652C8.81909 12.2691 10.034 10.3719 11.2513 8.47703C11.9733 7.35468 12.176 6.14756 11.8414 4.85806C11.2465 2.56202 8.96301 1.12565 6.62792 1.58653C5.47176 1.81458 4.55428 2.42351 3.85507 3.36677C2.78767 4.80552 2.71571 6.88067 3.67997 8.38151C4.89848 10.2764 6.1134 12.1736 7.32952 14.0697C7.37989 14.1485 7.43027 14.2261 7.49503 14.3264L7.49623 14.3252ZM7.49743 16.4696C7.85243 16.4696 8.20863 16.4839 8.56243 16.4672C9.79174 16.4075 11.0031 16.2284 12.1736 15.8356C12.7169 15.6529 13.2446 15.4344 13.6824 15.0499C14.0901 14.6917 14.1093 14.355 13.7028 14.004C13.4665 13.7998 13.1954 13.6243 12.916 13.4858C12.0573 13.0608 11.1266 12.8817 10.1923 12.7061C9.84211 12.6405 9.67901 12.7432 9.5051 13.0309C9.01098 13.85 8.47968 14.6476 7.96637 15.4547C7.83204 15.666 7.65694 15.7842 7.39908 15.7401C7.21918 15.709 7.11364 15.5848 7.02249 15.4404C6.45761 14.5544 5.88793 13.6697 5.32544 12.7826C5.26308 12.6846 5.20551 12.65 5.08558 12.6751C4.85291 12.724 4.61304 12.7443 4.37917 12.7873C3.49887 12.9509 2.63055 13.1622 1.84499 13.61C1.59793 13.7509 1.36766 13.9359 1.16857 14.1377C0.931106 14.3777 0.943099 14.6404 1.16617 14.8935C1.27531 15.0165 1.40004 15.1311 1.53557 15.2255C2.06087 15.5908 2.65574 15.8033 3.2662 15.9753C4.64902 16.3669 6.06663 16.4947 7.49863 16.4708L7.49743 16.4696Z" fill="black"/>
<path d="M7.4784 8.50109C6.10157 8.48915 4.98379 7.35725 4.99818 5.98774C5.01258 4.61705 6.15074 3.50544 7.52517 3.52216C8.896 3.53887 10.0066 4.66361 9.99698 6.02595C9.98739 7.39665 8.85283 8.51183 7.4772 8.49989L7.4784 8.50109ZM5.99962 5.98894C5.97684 6.79369 6.64126 7.47665 7.4712 7.50411C8.27835 7.53038 8.96556 6.87129 8.99674 6.04386C9.02673 5.23673 8.34911 4.53824 7.51797 4.52033C6.70963 4.50242 6.02361 5.16628 5.99962 5.99013V5.98894Z" fill="black"/>
</g>
<defs>
<clipPath id="clip0_248_174">
<rect width="15" height="17" fill="white" transform="translate(0 0.5)"/>
</clipPath>
</defs>
</svg>
