<svg width="13" height="9" viewBox="0 0 13 9" fill="none" xmlns="http://www.w3.org/2000/svg">
<g clip-path="url(#clip0_248_596)">
<path d="M8.00523 8.78603C7.96761 8.76865 7.92973 8.75153 7.89237 8.73391C7.54174 8.56927 7.47315 8.13449 7.758 7.85202C8.27652 7.33819 8.79861 6.82814 9.31917 6.31633C9.7133 5.92888 10.1072 5.54093 10.5023 5.15474C10.5348 5.12302 10.5768 5.10062 10.6147 5.07393C10.6065 5.05958 10.5983 5.04548 10.5904 5.03113C10.5374 5.03113 10.4842 5.03113 10.4312 5.03113C7.34596 5.03113 4.26048 5.03113 1.17525 5.03012C1.07826 5.03012 0.977163 5.02811 0.885285 5.00218C0.639337 4.93295 0.474774 4.68321 0.503183 4.44455C0.534406 4.18348 0.731727 3.98837 0.993799 3.96244C1.05701 3.95615 1.12125 3.95615 1.18498 3.95615C4.2702 3.9559 7.35568 3.95615 10.4409 3.95615C10.49 3.95615 10.5392 3.95615 10.5883 3.95615C10.6011 3.93802 10.6139 3.91989 10.6265 3.90177C10.5855 3.87961 10.5364 3.86526 10.5046 3.83405C9.60044 2.94813 8.69905 2.05944 7.79409 1.17428C7.63311 1.01693 7.55505 0.837685 7.61059 0.619667C7.71373 0.216359 8.21407 0.0791539 8.5217 0.370684C8.8004 0.634772 9.07066 0.907672 9.34451 1.1768C10.2984 2.11432 11.2512 3.05311 12.2071 3.98862C12.3353 4.114 12.454 4.24088 12.4996 4.41837V4.56891C12.4538 4.74615 12.3356 4.87278 12.2076 4.99815C11.0375 6.14489 9.87121 7.2954 8.69931 8.44037C8.56699 8.56952 8.40729 8.67148 8.26014 8.78603H8.00472H8.00523Z" fill="white"/>
</g>
<defs>
<clipPath id="clip0_248_596">
<rect width="12" height="8.57143" fill="white" transform="translate(0.5 0.214294)"/>
</clipPath>
</defs>
</svg>
