<svg width="14" height="17" viewBox="0 0 14 17" fill="none" xmlns="http://www.w3.org/2000/svg">
<path d="M12.8333 4.33317H10.3333V3.49984C10.3333 2.61578 9.98215 1.76794 9.35703 1.14281C8.73191 0.517693 7.88407 0.166504 7.00001 0.166504C6.11595 0.166504 5.26811 0.517693 4.64299 1.14281C4.01787 1.76794 3.66668 2.61578 3.66668 3.49984V4.33317H1.16668C0.945663 4.33317 0.733702 4.42097 0.577421 4.57725C0.421141 4.73353 0.333344 4.94549 0.333344 5.1665V14.3332C0.333344 14.9962 0.596736 15.6321 1.06558 16.1009C1.53442 16.5698 2.1703 16.8332 2.83334 16.8332H11.1667C11.8297 16.8332 12.4656 16.5698 12.9344 16.1009C13.4033 15.6321 13.6667 14.9962 13.6667 14.3332V5.1665C13.6667 4.94549 13.5789 4.73353 13.4226 4.57725C13.2663 4.42097 13.0544 4.33317 12.8333 4.33317ZM5.33334 3.49984C5.33334 3.05781 5.50894 2.63389 5.8215 2.32133C6.13406 2.00877 6.55798 1.83317 7.00001 1.83317C7.44204 1.83317 7.86596 2.00877 8.17852 2.32133C8.49108 2.63389 8.66668 3.05781 8.66668 3.49984V4.33317H5.33334V3.49984ZM12 14.3332C12 14.5542 11.9122 14.7661 11.7559 14.9224C11.5997 15.0787 11.3877 15.1665 11.1667 15.1665H2.83334C2.61233 15.1665 2.40037 15.0787 2.24409 14.9224C2.08781 14.7661 2.00001 14.5542 2.00001 14.3332V5.99984H3.66668V6.83317C3.66668 7.05418 3.75447 7.26615 3.91075 7.42243C4.06703 7.57871 4.279 7.6665 4.50001 7.6665C4.72102 7.6665 4.93299 7.57871 5.08927 7.42243C5.24555 7.26615 5.33334 7.05418 5.33334 6.83317V5.99984H8.66668V6.83317C8.66668 7.05418 8.75447 7.26615 8.91075 7.42243C9.06703 7.57871 9.279 7.6665 9.50001 7.6665C9.72102 7.6665 9.93299 7.57871 10.0893 7.42243C10.2455 7.26615 10.3333 7.05418 10.3333 6.83317V5.99984H12V14.3332Z" fill="#1D1761"/>
</svg>
