<svg width="16" height="17" viewBox="0 0 16 17" fill="none" xmlns="http://www.w3.org/2000/svg">
<g clip-path="url(#clip0_210_1216)">
<path d="M8.46594 16.5002H7.52821C7.26042 16.4667 6.99107 16.4423 6.72516 16.3978C5.0539 16.1186 3.59719 15.3999 2.39825 14.2025C0.600465 12.4062 -0.191 10.2231 0.0388912 7.69522C0.1933 5.99821 0.857605 4.49872 1.99265 3.22432C3.5001 1.532 5.39718 0.62042 7.66101 0.510229C9.23955 0.43322 10.7238 0.80136 12.075 1.62529C14.1522 2.89187 15.4269 4.72631 15.8754 7.12329C15.9315 7.42318 15.9593 7.7284 16.0001 8.03143V8.969C15.9872 9.08138 15.9744 9.19376 15.9618 9.30614C15.7702 11.0276 15.1124 12.5465 13.9517 13.834C12.7192 15.2011 11.1924 16.0544 9.37549 16.3759C9.0745 16.4292 8.76912 16.4595 8.46594 16.5002ZM6.75272 9.81766C6.71921 9.78917 6.69133 9.76694 6.66502 9.74284C6.26945 9.38065 5.8745 9.01752 5.47798 8.65595C5.16634 8.37202 4.86504 8.07431 4.53649 7.81104C4.06199 7.43132 3.3695 7.73059 3.29746 8.33289C3.26081 8.63779 3.38422 8.87727 3.60628 9.07856C4.46633 9.85898 5.32451 10.6416 6.183 11.4239C6.60144 11.8049 7.02176 11.7986 7.42172 11.402C9.07825 9.75881 10.7345 8.11532 12.3907 6.47153C12.4349 6.4277 12.4787 6.38262 12.5185 6.33473C12.8401 5.94718 12.7362 5.37587 12.2992 5.12419C11.9557 4.92634 11.587 4.99177 11.2672 5.31139C9.80426 6.77268 8.34223 8.23491 6.87988 9.69651C6.8401 9.73627 6.79876 9.77383 6.75303 9.81766H6.75272Z" fill="#F36523"/>
</g>
<defs>
<clipPath id="clip0_210_1216">
<rect width="16" height="16" fill="white" transform="translate(0 0.5)"/>
</clipPath>
</defs>
</svg>
