<svg width="16" height="17" viewBox="0 0 16 17" fill="none" xmlns="http://www.w3.org/2000/svg">
<g clip-path="url(#clip0_210_1060)">
<path d="M8.46588 16.5002H7.52815C7.26036 16.4667 6.99101 16.4423 6.7251 16.3978C5.05384 16.1186 3.59713 15.3999 2.39819 14.2025C0.600404 12.4062 -0.191061 10.2231 0.0388302 7.69522C0.193239 5.99821 0.857544 4.49872 1.99259 3.22432C3.50004 1.532 5.39711 0.62042 7.66095 0.510229C9.23949 0.43322 10.7238 0.80136 12.0749 1.62529C14.1521 2.89187 15.4268 4.72631 15.8753 7.12329C15.9314 7.42318 15.9593 7.7284 16 8.03143V8.969C15.9871 9.08138 15.9743 9.19376 15.9618 9.30614C15.7701 11.0276 15.1124 12.5465 13.9516 13.834C12.7192 15.2011 11.1923 16.0544 9.37542 16.3759C9.07444 16.4292 8.76906 16.4595 8.46588 16.5002ZM6.75266 9.81766C6.71915 9.78917 6.69127 9.76694 6.66496 9.74284C6.26939 9.38065 5.87444 9.01752 5.47792 8.65595C5.16628 8.37202 4.86498 8.07431 4.53643 7.81104C4.06193 7.43132 3.36944 7.73059 3.2974 8.33289C3.26075 8.63779 3.38416 8.87727 3.60622 9.07856C4.46627 9.85898 5.32445 10.6416 6.18294 11.4239C6.60138 11.8049 7.0217 11.7986 7.42166 11.402C9.07819 9.75881 10.7344 8.11532 12.3906 6.47153C12.4348 6.4277 12.4786 6.38262 12.5184 6.33473C12.8401 5.94718 12.7361 5.37587 12.2992 5.12419C11.9556 4.92634 11.587 4.99177 11.2672 5.31139C9.8042 6.77268 8.34217 8.23491 6.87982 9.69651C6.84004 9.73627 6.7987 9.77383 6.75297 9.81766H6.75266Z" fill="#01A12E"/>
</g>
<defs>
<clipPath id="clip0_210_1060">
<rect width="16" height="16" fill="white" transform="translate(0 0.5)"/>
</clipPath>
</defs>
</svg>
