<svg width="12" height="9" viewBox="0 0 12 9" fill="none" xmlns="http://www.w3.org/2000/svg">
<g clip-path="url(#clip0_150_5653)">
<path d="M12.0004 0.56561C11.9177 0.67643 11.8477 0.800397 11.751 0.896191C9.21014 3.44004 6.66762 5.98248 4.12346 8.52351C4.03096 8.61601 3.93563 8.69842 3.79805 8.71486C3.61984 8.73622 3.48226 8.66626 3.35899 8.54276C2.29994 7.48199 1.2398 6.422 0.178559 5.36279C0.162124 5.34636 0.145454 5.32992 0.129958 5.31231C0.00552028 5.17144 -0.0343936 5.01085 0.0313469 4.83475C0.0970875 4.65866 0.229743 4.55841 0.415929 4.53423C0.476207 4.52661 0.53741 4.53166 0.595627 4.54904C0.653843 4.56642 0.707792 4.59576 0.754024 4.63519C0.792816 4.66783 0.82981 4.70255 0.864843 4.7392C1.7874 5.66082 2.70957 6.58275 3.63135 7.505C3.65944 7.53747 3.68496 7.57209 3.70765 7.60854L3.76118 7.62262C3.78795 7.58013 3.80814 7.53035 3.84266 7.4956C6.27725 5.0607 8.71247 2.62626 11.1483 0.192297C11.2497 0.0906339 11.3573 0.00634509 11.5101 0.0004754C11.7684 -0.00938568 11.9104 0.135009 12.0004 0.35477V0.56561Z" fill="white"/>
</g>
<defs>
<clipPath id="clip0_150_5653">
<rect width="12" height="8.71861" fill="white"/>
</clipPath>
</defs>
</svg>
