<svg width="11" height="11" viewBox="0 0 11 11" fill="none" xmlns="http://www.w3.org/2000/svg">
<g clip-path="url(#clip0_94_38613)">
<path d="M0.54 11.001C0.504922 10.985 0.470275 10.9684 0.434982 10.9534C-0.0167254 10.7595 -0.142188 10.1785 0.189652 9.81524C0.218705 9.78359 0.249478 9.75344 0.279822 9.72307C1.65388 8.34764 3.02794 6.97243 4.40243 5.59743C4.43019 5.56965 4.46333 5.54747 4.52574 5.49686C4.47194 5.46154 4.43062 5.44345 4.40092 5.41395C3.0133 4.02668 1.62655 2.63876 0.240225 1.2504C-0.0449167 0.965067 -0.0789185 0.581532 0.151777 0.279828C0.399258 -0.0442711 0.87227 -0.0931552 1.17979 0.174523C1.23101 0.2191 1.27792 0.26863 1.32591 0.316868C2.68491 1.67679 4.0439 3.03694 5.40225 4.39751C5.43238 4.42766 5.45498 4.46491 5.48639 4.50583C5.53395 4.4606 5.56494 4.43239 5.59443 4.40289C6.97881 3.01755 8.36342 1.63243 9.74673 0.246234C9.95913 0.0332544 10.2045 -0.0533157 10.4978 0.0356232C10.7248 0.104535 10.877 0.256355 10.9594 0.47881C10.9714 0.511113 10.9863 0.542554 10.9998 0.574425V0.853947C10.9377 1.0764 10.784 1.23253 10.626 1.38995C9.28297 2.73071 7.94248 4.07405 6.60135 5.41654C6.57208 5.44582 6.54411 5.4764 6.5058 5.51646C6.54023 5.5451 6.56993 5.56577 6.59511 5.59118C7.94184 6.9384 9.28728 8.2867 10.6355 9.63263C10.7911 9.7879 10.9402 9.94316 10.9998 10.1626V10.4421C10.9118 10.716 10.7369 10.9062 10.4629 11.0012H10.1192C9.92664 10.9379 9.78417 10.8065 9.64429 10.6659C8.29541 9.31241 6.94417 7.96109 5.59356 6.60935C5.56408 6.57985 5.53352 6.55164 5.49307 6.51288C5.45799 6.55315 5.43152 6.58717 5.40139 6.61732C4.04864 7.97186 2.69481 9.32554 1.34335 10.6816C1.2082 10.8173 1.06853 10.9402 0.883461 11.001H0.539784H0.54Z" fill="black"/>
</g>
<defs>
<clipPath id="clip0_94_38613">
<rect width="11" height="11" fill="white"/>
</clipPath>
</defs>
</svg>
