<svg width="9" height="6" viewBox="0 0 9 6" fill="none" xmlns="http://www.w3.org/2000/svg">
<path d="M4.50087 4.85418C4.55541 4.78942 4.58609 4.74851 4.62358 4.71102C5.83365 3.50095 7.04373 2.28747 8.25721 1.0808C8.3322 1.00581 8.43446 0.944456 8.53672 0.917187C8.69352 0.872874 8.86395 0.968316 8.94576 1.11148C9.02756 1.25464 9.01734 1.4353 8.91167 1.56824C8.88099 1.60914 8.8435 1.64323 8.806 1.68073C7.49026 2.99647 6.17452 4.31221 4.85878 5.63136C4.60313 5.88701 4.39861 5.88701 4.14637 5.63477C2.81699 4.30539 1.49103 2.97601 0.161651 1.65005C0.0355311 1.52393 -0.0360506 1.38417 0.0184879 1.20351C0.100296 0.927412 0.427526 0.821744 0.655906 0.995585C0.69681 1.02626 0.730897 1.06376 0.768392 1.10125C1.97506 2.30792 3.18513 3.51799 4.39179 4.72465C4.42588 4.75533 4.45315 4.79624 4.50087 4.85418Z" fill="black"/>
</svg>
