<svg width="13" height="20" viewBox="0 0 13 20" fill="none" xmlns="http://www.w3.org/2000/svg">
<g clip-path="url(#clip0_248_189)">
<path d="M6.91697 0.899902C6.86707 0.905128 6.81716 0.910353 6.76408 0.915578C7.81839 1.00755 8.67946 1.45484 9.31969 2.27836C9.95993 3.10083 10.1903 4.03513 9.99603 5.05721C9.6499 6.88401 7.97553 8.03568 6.24913 7.90714C4.38046 7.76814 3.00338 6.28936 2.9418 4.52527C2.90888 3.58575 3.22316 2.75805 3.86021 2.06412C4.49725 1.37019 5.29993 0.986644 6.24701 0.916624C6.21197 0.911398 6.17162 0.905128 6.13234 0.899902C6.39353 0.899902 6.65578 0.899902 6.91697 0.899902ZM3.80499 4.39359C3.7965 5.85356 4.98247 7.04599 6.44768 7.0669C7.98508 7.0878 9.21989 5.88282 9.19972 4.36642C9.18061 2.96079 8.03074 1.76836 6.52731 1.75268C4.97504 1.73701 3.80181 2.99423 3.80499 4.39359Z" fill="black"/>
<path d="M9.1798 16.5051C9.20209 16.6232 9.22439 16.735 9.24562 16.8469C9.32419 17.2743 9.40064 17.7028 9.48027 18.1302C9.50257 18.2514 9.53123 18.3706 9.51743 18.4949C9.48345 18.8001 9.22014 19.0562 8.91011 19.0917C8.76041 19.1084 8.62556 19.0802 8.49391 19.0102C7.88128 18.6841 7.26653 18.3601 6.65284 18.0362C6.63161 18.0247 6.60719 18.0184 6.58914 18.0038C6.52862 17.9546 6.47553 17.9693 6.41077 18.0038C5.84592 18.3058 5.27895 18.6036 4.71304 18.9025C4.63128 18.9454 4.54953 18.9914 4.46565 19.03C3.9953 19.2432 3.57803 18.9307 3.49309 18.5409C3.46761 18.4249 3.48884 18.311 3.51008 18.1971C3.59077 17.7592 3.6704 17.3213 3.7511 16.8834C3.77233 16.7685 3.79569 16.6535 3.81799 16.5396C3.82011 16.5312 3.82011 16.5229 3.82117 16.5051H3.76277C2.94629 16.5051 2.12981 16.5051 1.31333 16.5051C0.692209 16.5051 0.153905 16.0798 0.0318041 15.4789C0.00313705 15.3409 0.00419879 15.1967 0.00419879 15.0546C0.0020753 13.9426 0.00632228 12.8317 0.00101356 11.7197C-0.00110993 11.2066 0.0880766 10.7133 0.296179 10.242C0.448008 9.8992 0.650801 9.58776 0.904558 9.30873C1.41632 8.74543 2.05124 8.38697 2.79659 8.21349C3.05247 8.15392 3.31259 8.12988 3.57485 8.12988C5.52102 8.12988 7.46614 8.12988 9.41232 8.12988C9.9623 8.12988 10.4847 8.24693 10.9816 8.4758C11.3776 8.65765 11.7195 8.91369 12.02 9.22408C12.4871 9.70481 12.7887 10.2744 12.9309 10.9244C12.9787 11.1428 13.001 11.3644 13.001 11.5891C12.9989 12.8139 12.9989 14.0387 13.001 15.2636C13.001 15.7558 12.6506 16.2554 12.1516 16.4247C11.9998 16.4759 11.8448 16.5051 11.6834 16.5051C10.8701 16.5051 10.0568 16.5051 9.2435 16.5051C9.22439 16.5051 9.20528 16.5051 9.18086 16.5051H9.1798ZM9.57476 15.6492C9.59281 15.6513 9.59812 15.6523 9.60343 15.6523C10.3084 15.6523 11.0134 15.6534 11.7195 15.6523C11.8448 15.6523 11.952 15.598 12.037 15.506C12.1293 15.4067 12.1452 15.2866 12.1452 15.1591C12.1442 14.0398 12.1442 12.9195 12.1431 11.8002C12.1431 11.6863 12.1452 11.5724 12.1378 11.4585C12.1145 11.0697 11.9945 10.707 11.8097 10.3653C11.557 9.89606 11.1759 9.55014 10.7098 9.2941C10.3137 9.07672 9.88373 8.98685 9.43249 8.9858C8.53319 8.9858 7.6339 8.9858 6.7346 8.9858C5.65374 8.9858 4.57289 8.9858 3.49097 8.98684C3.09494 8.98684 2.72014 9.0809 2.36658 9.25438C1.79749 9.53551 1.37597 9.95877 1.10629 10.5304C0.940658 10.8826 0.857841 11.2515 0.858903 11.6392C0.858903 12.283 0.858903 12.9278 0.858903 13.5716C0.858903 14.1213 0.861027 14.671 0.858903 15.2197C0.857841 15.4621 1.05108 15.6534 1.30802 15.6534C1.99391 15.6534 2.6798 15.6534 3.36462 15.6534H3.41134C3.2765 15.5102 3.13953 15.3785 3.0015 15.2469C2.74987 15.0086 2.49611 14.7734 2.24767 14.532C2.07248 14.3617 2.00771 14.1495 2.05867 13.9133C2.12238 13.6207 2.36658 13.4169 2.67555 13.3783C2.9962 13.3385 3.31578 13.2957 3.63537 13.2518C4.01759 13.1995 4.39982 13.1442 4.78205 13.095C4.85743 13.0856 4.8999 13.0606 4.93388 12.9884C5.18127 12.4722 5.43502 11.959 5.68772 11.4459C5.75461 11.3101 5.82044 11.1742 5.8937 11.0415C6.04765 10.7624 6.34069 10.6276 6.64966 10.6966C6.85882 10.7436 7.01596 10.8669 7.11258 11.0561C7.29414 11.4125 7.47039 11.773 7.64664 12.1315C7.7974 12.4377 7.94499 12.7449 8.09575 13.0501C8.10319 13.0658 8.12867 13.0815 8.14778 13.0835C8.30704 13.1065 8.46524 13.1274 8.6245 13.1483C8.77739 13.1682 8.93135 13.186 9.08424 13.2069C9.26155 13.2309 9.4378 13.256 9.61511 13.28C9.86887 13.3156 10.1247 13.3459 10.3774 13.3887C10.6631 13.4368 10.852 13.6061 10.9317 13.8788C11.006 14.1349 10.9296 14.3606 10.7406 14.5446C10.4836 14.7943 10.2203 15.0378 9.96018 15.2834C9.83383 15.4036 9.70642 15.5228 9.57264 15.6492H9.57476ZM4.40725 18.102C4.43167 18.0915 4.4476 18.0853 4.46353 18.0769C4.63978 17.9818 4.81602 17.8857 4.99334 17.7916C5.383 17.5847 5.77372 17.3799 6.16338 17.1729C6.3821 17.0569 6.60294 17.0507 6.82272 17.1646C7.05418 17.2837 7.28352 17.407 7.51286 17.5293C7.86217 17.7143 8.21042 17.8993 8.55974 18.0842C8.56929 18.0895 8.57991 18.0936 8.59584 18.101C8.59265 18.0801 8.59159 18.0654 8.58947 18.0518C8.55549 17.8616 8.52045 17.6704 8.48541 17.4802C8.41428 17.0904 8.34102 16.7006 8.272 16.3107C8.25289 16.2062 8.23272 16.0996 8.23272 15.9941C8.23272 15.7987 8.33358 15.645 8.47267 15.5144C8.82517 15.1821 9.17873 14.8487 9.53123 14.5163C9.64802 14.4066 9.76482 14.2958 9.88692 14.1809C9.84445 14.1736 9.80941 14.1662 9.77437 14.1621C9.51637 14.1286 9.25943 14.0962 9.00142 14.0617C8.72324 14.0252 8.44507 13.9865 8.16689 13.9478C8.04904 13.9311 7.93012 13.9207 7.81545 13.8924C7.59992 13.8402 7.45446 13.697 7.3589 13.5058C7.1147 13.0146 6.87475 12.5213 6.63373 12.0291C6.58914 11.9392 6.54773 11.8483 6.50208 11.7521C6.49252 11.7657 6.48615 11.7751 6.48084 11.7856C6.44262 11.8639 6.40546 11.9434 6.36723 12.0217C6.12516 12.5171 5.88308 13.0125 5.63994 13.5078C5.52315 13.744 5.32991 13.8778 5.06554 13.9133C4.77143 13.953 4.47627 13.9917 4.18216 14.0314C3.87744 14.0722 3.57166 14.1129 3.26694 14.1537C3.21704 14.16 3.16607 14.1694 3.11086 14.1777C3.11936 14.1892 3.12148 14.1924 3.12467 14.1955C3.34232 14.3993 3.56104 14.6031 3.7787 14.8079C4.04308 15.0577 4.30851 15.3085 4.56864 15.5625C4.74276 15.7318 4.80116 15.9408 4.75763 16.178C4.64508 16.7873 4.53254 17.3966 4.41999 18.0069C4.41469 18.0372 4.4115 18.0675 4.40619 18.1051L4.40725 18.102Z" fill="black"/>
</g>
<defs>
<clipPath id="clip0_248_189">
<rect width="13" height="18.2" fill="white" transform="translate(0 0.899902)"/>
</clipPath>
</defs>
</svg>
