<svg width="17" height="17" viewBox="0 0 17 17" fill="none" xmlns="http://www.w3.org/2000/svg">
<g clip-path="url(#clip0_94_74)">
<path d="M9.10358 17.0001H7.90914C7.87291 16.9898 7.83734 16.9729 7.80044 16.9699C6.63559 16.8785 5.54155 16.5478 4.50735 16.0074C4.43122 15.9675 4.31653 15.9619 4.23209 15.9848C3.48777 16.1852 2.74578 16.3943 2.00412 16.604C1.54968 16.7326 1.09691 16.8679 0.643138 17.0001H0.377856C0.0115135 16.7941 -0.0476597 16.6429 0.069357 16.2248C0.39215 15.0732 0.712949 13.921 1.03907 12.7701C1.07065 12.6587 1.04704 12.5733 0.996515 12.4759C0.000875545 10.5597 -0.257425 8.54267 0.261836 6.4509C1.50447 1.44615 6.89888 -1.32459 11.674 0.631249C14.5329 1.80242 16.2602 3.97129 16.8672 7.01157C16.9264 7.30801 16.9567 7.61011 17.0002 7.90989V9.10433C16.9896 9.14653 16.973 9.18841 16.9693 9.23128C16.8486 10.7095 16.3766 12.0678 15.5305 13.2839C14.1742 15.2327 12.3289 16.4428 9.98453 16.8708C9.69265 16.924 9.39745 16.9576 9.10358 17.0001ZM1.23254 15.7818C2.23417 15.5009 3.20587 15.2324 4.17458 14.9546C4.40695 14.8881 4.60675 14.9087 4.82183 15.0283C6.51359 15.9702 8.31072 16.2374 10.198 15.8047C14.2905 14.8668 16.8174 10.6966 15.7662 6.63502C14.7403 2.67084 10.7165 0.258028 6.72967 1.22614C4.99569 1.64722 3.58817 2.58476 2.5164 4.00586C1.34557 5.55889 0.870523 7.32131 1.04837 9.25355C1.14644 10.322 1.47489 11.3244 2.01609 12.2533C2.1115 12.4171 2.12945 12.5806 2.0756 12.7611C1.99515 13.0303 1.92334 13.3021 1.84788 13.573C1.64543 14.2992 1.44331 15.0253 1.23254 15.7814V15.7818Z" fill="white"/>
<path d="M10.0993 13.1046C8.92717 13.0435 7.89496 12.6254 6.95418 11.9667C5.68062 11.075 4.73119 9.92144 4.21625 8.44052C3.92404 7.60035 3.83063 6.74357 4.09059 5.87184C4.30967 5.13736 4.79502 4.59598 5.39573 4.16692C5.99976 3.73554 6.81987 3.82926 7.36573 4.33741C7.55156 4.51056 7.73174 4.69069 7.90527 4.87681C8.47839 5.49197 8.49202 6.41555 7.93984 7.04933C7.84909 7.15335 7.74603 7.24641 7.65229 7.34777C7.52098 7.49002 7.51433 7.65287 7.65063 7.79079C8.17122 8.31788 8.69513 8.84166 9.22237 9.3621C9.36 9.49803 9.52323 9.49039 9.66584 9.35911C9.75526 9.27669 9.83671 9.18596 9.92647 9.10387C10.5757 8.5123 11.5271 8.52261 12.1614 9.12913C12.3173 9.27802 12.4689 9.43156 12.6192 9.5861C13.2754 10.2594 13.2721 11.2265 12.6235 11.9055C12.191 12.3585 11.7332 12.7729 11.1056 12.9248C10.7752 13.0049 10.4351 13.0455 10.0993 13.104V13.1046ZM4.92533 6.90941C4.96223 7.16532 4.96988 7.42953 5.04002 7.67613C5.63807 9.77388 7.00105 11.1591 9.03687 11.8922C9.57907 12.0873 10.1452 12.1215 10.7177 11.9973C11.2845 11.8743 11.6668 11.4954 12.0092 11.0713C12.181 10.8583 12.1325 10.5313 11.9384 10.3249C11.7831 10.1601 11.6229 9.99921 11.458 9.844C11.203 9.60372 10.8496 9.6087 10.5933 9.85098C10.5009 9.93839 10.4151 10.0328 10.3211 10.1179C9.81743 10.5742 9.06679 10.5894 8.57479 10.1215C7.99835 9.57347 7.43521 9.01015 6.88736 8.43354C6.42162 7.94366 6.43957 7.18592 6.89733 6.68774C6.98709 6.59003 7.08649 6.5013 7.17558 6.40326C7.39831 6.15799 7.40662 5.81734 7.18655 5.57639C7.02266 5.39692 6.84979 5.22543 6.67128 5.06059C6.4635 4.86883 6.1221 4.84623 5.90768 5.02204C5.31461 5.50826 4.89774 6.08952 4.92533 6.90941Z" fill="white"/>
</g>
<defs>
<clipPath id="clip0_94_74">
<rect width="17" height="17" fill="white"/>
</clipPath>
</defs>
</svg>
