<svg width="18" height="13" viewBox="0 0 18 13" fill="none" xmlns="http://www.w3.org/2000/svg">
<path d="M9.00704 0.00844252C11.6508 0.00844252 14.2987 0.00844252 16.9425 0.00844252C17.2423 0.00844252 17.5212 0.0500772 17.7419 0.279065C17.95 0.491398 18 0.757856 18 1.04513C18 3.70971 18 6.37845 18 9.04303C18 9.82575 18 10.6085 18 11.3912C18 12.0906 17.6544 12.432 16.9508 12.432C11.7008 12.432 6.45487 12.432 1.20482 12.432C1.14237 12.432 1.07992 12.432 1.01747 12.432C0.355484 12.4237 0.00575796 12.074 0.00575796 11.412C0.00575796 8.51012 0.00575796 5.60822 0.00575796 2.70633C0.00575796 2.16509 0.0224116 1.62384 0.00159461 1.08677C-0.0275492 0.43311 0.342994 -0.00821097 1.09657 0.000115839C3.73201 0.0167695 6.37161 0.00844252 9.00704 0.00844252ZM17.2214 1.29077C17.109 1.39486 17.0216 1.4698 16.9383 1.5489C14.6485 3.70555 12.3627 5.85803 10.0729 8.01467C9.37758 8.66833 8.63234 8.66833 7.94121 8.01467C5.61387 5.83305 3.29069 3.6431 0.963341 1.45731C0.909217 1.40735 0.855093 1.36155 0.788478 1.30743C0.788478 4.55905 0.788478 7.78568 0.788478 11.0456C0.85093 10.9832 0.8884 10.9415 0.925871 10.8999C1.8668 9.8549 2.80773 8.80988 3.74866 7.76903C4.14002 7.33604 4.52722 6.90304 4.91858 6.47421C5.0643 6.31184 5.25998 6.27853 5.42235 6.37845C5.58889 6.47838 5.63468 6.63242 5.58889 6.80728C5.56391 6.89472 5.49729 6.97798 5.43484 7.04876C4.11504 8.51428 2.79108 9.9798 1.47128 11.4453C1.41715 11.5036 1.36719 11.5661 1.30058 11.6452C6.45071 11.6452 11.5634 11.6452 16.7177 11.6452C16.6302 11.5494 16.5678 11.4745 16.5053 11.4078C15.1897 9.94649 13.8699 8.4893 12.5543 7.02794C12.3627 6.81561 12.3544 6.5783 12.5293 6.42425C12.7041 6.2702 12.9331 6.30351 13.1288 6.52001C14.1822 7.68576 15.2313 8.85568 16.2847 10.0214C16.5886 10.3587 16.8925 10.6917 17.2256 11.0581C17.2214 7.78152 17.2214 4.55905 17.2214 1.29077ZM1.42132 0.778673C1.40883 0.791164 1.4005 0.807817 1.38801 0.820307C1.44213 0.861941 1.49626 0.899412 1.54205 0.941046C3.0159 2.32746 4.48558 3.71387 5.95943 5.09612C6.82125 5.90799 7.68308 6.71985 8.54907 7.52755C8.83218 7.79401 9.16942 7.78568 9.46085 7.53172C9.5233 7.47759 9.58576 7.4193 9.64404 7.36102C11.9131 5.22519 14.1822 3.08936 16.4512 0.953536C16.5053 0.903575 16.572 0.870268 16.6344 0.832797C16.6177 0.81198 16.6053 0.795327 16.5886 0.77451C11.5301 0.778673 6.47569 0.778673 1.42132 0.778673Z" fill="#000"/>
</svg>
