<svg width="15" height="16" viewBox="0 0 15 16" fill="none" xmlns="http://www.w3.org/2000/svg">
<g clip-path="url(#clip0_248_196)">
<path d="M0 8.4718C0 8.15983 0 7.8468 0 7.53483C0.00840513 7.49281 0.0189115 7.44975 0.0252154 7.40773C0.0851019 7.02748 0.117672 6.64092 0.205926 6.26907C1.32171 1.60416 6.46985 -0.883238 10.8573 1.30269C13.9651 2.85101 15.5631 6.26487 14.8182 9.65458C14.1742 12.58 11.7441 14.892 8.79176 15.3867C8.5186 15.4329 8.24333 15.4623 7.96806 15.5002H7.03089C6.99832 15.4918 6.96575 15.4813 6.93318 15.4771C6.59067 15.4266 6.24501 15.3941 5.9067 15.3268C2.99958 14.7449 0.591511 12.247 0.117672 9.32579C0.0714436 9.04323 0.0388737 8.75752 0 8.47285L0 8.4718ZM14.1196 8.00542C14.1206 4.35101 11.1589 1.38777 7.50158 1.38567C3.8464 1.38357 0.881488 4.34575 0.879386 8.00122C0.877285 11.6546 3.84114 14.6199 7.49737 14.621C11.1526 14.6231 14.1185 11.6598 14.1196 8.00437V8.00542Z" fill="black"/>
<path d="M1.75782 8.00002C1.76097 4.83825 4.33609 2.26472 7.49852 2.26367C10.6662 2.26367 13.2487 4.84981 13.2403 8.01367C13.2319 11.1775 10.6525 13.7479 7.49221 13.7427C4.32873 13.7374 1.75466 11.1597 1.75782 8.00002ZM12.3619 8.00737C12.3651 5.32985 10.184 3.14497 7.50377 3.14182C4.82569 3.13867 2.6393 5.32039 2.6372 7.99791C2.6351 10.6754 4.81623 12.8603 7.49536 12.8635C10.1745 12.8666 12.3598 10.6859 12.3619 8.00632V8.00737Z" fill="black"/>
<path d="M7.06389 5.21741V4.33716H7.93277V5.21846C8.41817 5.3046 8.8006 5.53674 9.06746 5.94115C9.24082 6.2027 9.33012 6.49157 9.32802 6.8172H8.47595C8.47175 6.8109 8.4623 6.8046 8.46124 6.79619C8.33937 6.26258 8.12189 6.08926 7.5745 6.08926C7.47154 6.08926 7.36963 6.08716 7.26667 6.08926C6.85797 6.10186 6.54382 6.41909 6.53962 6.8193C6.53542 7.21951 6.86217 7.54724 7.27192 7.563C7.55874 7.57455 7.85292 7.563 8.12819 7.62602C8.84263 7.78884 9.34693 8.46741 9.33328 9.1964C9.31962 9.95481 8.78799 10.6029 8.0536 10.7573C8.01577 10.7657 7.98005 10.7773 7.93382 10.7899V11.6638H7.06074V10.7867C6.53332 10.6869 6.12462 10.4233 5.86301 9.95586C5.73063 9.71951 5.66024 9.46531 5.66759 9.1838H6.52701C6.54383 9.25838 6.55433 9.33086 6.57534 9.40018C6.66675 9.69535 6.92626 9.89808 7.23725 9.91174C7.40745 9.91909 7.57871 9.91909 7.74996 9.91174C8.14815 9.89493 8.45704 9.5693 8.45494 9.17644C8.45284 8.77834 8.13239 8.45796 7.73 8.4401C7.44317 8.42749 7.14899 8.4401 6.87268 8.37813C6.15404 8.21426 5.65288 7.54619 5.66024 6.81405C5.66654 6.06615 6.19081 5.41489 6.91785 5.24892C6.95988 5.23947 7.00296 5.22897 7.06179 5.21531L7.06389 5.21741Z" fill="black"/>
</g>
<defs>
<clipPath id="clip0_248_196">
<rect width="15" height="15" fill="white" transform="translate(0 0.5)"/>
</clipPath>
</defs>
</svg>
