<svg width="9" height="18" viewBox="0 0 9 18" fill="none" xmlns="http://www.w3.org/2000/svg">
<path d="M4.47929 16.415C4.52777 16.3575 4.55504 16.3211 4.58837 16.2878C5.66399 15.2122 6.73961 14.1335 7.81826 13.0609C7.88492 12.9943 7.97581 12.9397 8.06671 12.9155C8.20609 12.8761 8.35758 12.9609 8.4303 13.0882C8.50302 13.2154 8.49393 13.376 8.4 13.4942C8.37273 13.5306 8.3394 13.5609 8.30607 13.5942C7.13653 14.7637 5.96698 15.9333 4.79743 17.1059C4.57019 17.3331 4.38839 17.3331 4.16418 17.1089C2.98251 15.9272 1.80387 14.7456 0.622206 13.5669C0.510099 13.4548 0.446471 13.3306 0.494949 13.17C0.567667 12.9246 0.858539 12.8306 1.06154 12.9852C1.0979 13.0124 1.1282 13.0458 1.16153 13.0791C2.23412 14.1517 3.30974 15.2273 4.38233 16.2999C4.41263 16.3272 4.43687 16.3635 4.47929 16.415Z" fill="#616161"/>
<path d="M4.47929 1.45594C4.52777 1.5135 4.55504 1.54986 4.58837 1.58319C5.66399 2.65881 6.73961 3.73746 7.81826 4.81005C7.88492 4.87671 7.97581 4.93125 8.06671 4.95549C8.20609 4.99488 8.35758 4.91004 8.4303 4.78278C8.50302 4.65553 8.49393 4.49494 8.4 4.37678C8.37273 4.34042 8.3394 4.31012 8.30607 4.27679C7.13653 3.10724 5.96698 1.93769 4.79743 0.765116C4.57019 0.537872 4.38839 0.537872 4.16418 0.762085C2.98251 1.94375 1.80387 3.12542 0.622206 4.30406C0.510099 4.41616 0.446471 4.54039 0.494949 4.70098C0.567667 4.9464 0.858539 5.04033 1.06154 4.8858C1.0979 4.85853 1.1282 4.8252 1.16153 4.79187C2.23412 3.71928 3.30974 2.64366 4.38233 1.57107C4.41263 1.5438 4.43687 1.50744 4.47929 1.45594Z" fill="#616161"/>
</svg>
