<svg width="15" height="16" viewBox="0 0 15 16" fill="none" xmlns="http://www.w3.org/2000/svg">
<g clip-path="url(#clip0_248_182)">
<path d="M0 8.44034C0 8.14715 0 7.85518 0 7.56199C0.00851651 7.50968 0.0194663 7.45858 0.0267662 7.40627C0.0742153 7.08389 0.100981 6.75664 0.169113 6.4379C0.560873 4.63742 1.48552 3.16175 2.95279 2.04982C4.77898 0.667829 6.8351 0.209191 9.07616 0.676345C10.8707 1.04982 12.3282 1.99021 13.4439 3.44034C14.6484 5.00603 15.1496 6.78948 14.9611 8.75055C14.8078 10.3406 14.1909 11.7445 13.1312 12.9428C11.9693 14.2566 10.5227 15.0742 8.79268 15.3819C8.51042 15.4318 8.22451 15.4598 7.93982 15.4987H7.0614C7.02368 15.4902 6.98597 15.4768 6.94825 15.4744C5.77541 15.3917 4.67678 15.0559 3.67548 14.4428C1.7325 13.253 0.53654 11.5377 0.116798 9.29192C0.0644821 9.01089 0.037716 8.72379 0 8.44034ZM7.49452 1.66661C3.99546 1.67513 1.16189 4.51211 1.16554 8.0036C1.16919 11.4999 4.00397 14.3333 7.50061 14.3357C10.9985 14.3369 13.8503 11.4817 13.8369 7.99143C13.8235 4.49143 10.9839 1.65931 7.49452 1.66661Z" fill="black"/>
<path d="M6.91786 6.29335C6.91786 5.72766 6.91299 5.16075 6.91908 4.59505C6.92394 4.15345 7.31935 3.87242 7.71111 4.02328C7.94957 4.11452 8.0834 4.32984 8.0834 4.62912C8.0834 5.46366 8.0834 6.29821 8.0834 7.13276C8.0834 7.34201 8.02865 7.58167 8.11139 7.75077C8.1929 7.915 8.41798 8.00989 8.58223 8.13276C9.10417 8.52571 9.62976 8.915 10.1505 9.3116C10.4327 9.52693 10.4851 9.87607 10.2855 10.1376C10.086 10.4004 9.73682 10.4454 9.45334 10.2362C8.95452 9.86756 8.46056 9.49408 7.96539 9.12182C7.71111 8.93203 7.46048 8.73739 7.20377 8.55247C7.00546 8.40892 6.91543 8.21914 6.91664 7.97705C6.91908 7.41622 6.91664 6.85418 6.91664 6.29335H6.91786Z" fill="black"/>
</g>
<defs>
<clipPath id="clip0_248_182">
<rect width="15" height="15" fill="white" transform="translate(0 0.5)"/>
</clipPath>
</defs>
</svg>
